<svg version="1.1" id="Layer_1" xmlns="http://www.w3.org/2000/svg" xmlns:xlink="http://www.w3.org/1999/xlink" x="0px" y="0px"
	 width="100%" viewBox="0 0 1076 200" enable-background="new 0 0 1076 200" xml:space="preserve">
<path fill="#020202" opacity="1.000000" stroke="none" 
	d="
M731.000000,201.000000 
	C487.380951,201.000000 244.261887,201.000000 1.071419,201.000000 
	C1.071419,134.394058 1.071419,67.788033 1.071419,1.090999 
	C359.666656,1.090999 718.333313,1.090999 1076.965942,1.090999 
	C1076.965942,67.738159 1076.965942,134.369095 1076.965942,201.000000 
	C961.787903,201.000000 846.643982,201.000000 731.000000,201.000000 
M613.396423,108.137024 
	C627.894226,128.903442 642.341431,149.705719 656.991455,170.364136 
	C658.091553,171.915497 660.598206,173.196472 662.522461,173.302155 
	C668.665405,173.639526 674.859131,173.066971 681.000061,173.421555 
	C685.572388,173.685562 686.911194,172.369278 686.889709,167.632111 
	C686.677124,120.655052 686.727905,73.676796 686.704468,26.698883 
	C686.703186,24.245430 686.704285,21.791975 686.704285,19.218525 
	C676.286560,19.218525 666.264465,19.218525 655.455200,19.218525 
	C655.455200,51.379307 655.455200,83.135475 655.455200,114.891640 
	C651.045349,110.418633 647.881104,105.637817 644.544800,100.980209 
	C626.106323,75.239464 607.572266,49.566891 589.221741,23.763716 
	C586.670532,20.176413 584.026855,18.439810 579.415527,18.818991 
	C573.460999,19.308624 567.424255,19.057920 561.437378,18.795954 
	C557.985718,18.644922 556.831909,19.695425 556.836670,23.269934 
	C556.901855,71.913849 556.861328,120.558044 556.721008,169.201813 
	C556.710876,172.728683 558.134583,173.371872 561.194763,173.296936 
	C568.187744,173.125732 575.197449,172.994415 582.180420,173.300827 
	C586.546814,173.492416 588.157532,172.590820 588.102905,167.635208 
	C587.768738,137.325211 587.851318,107.010590 587.812317,76.697479 
	C587.810303,75.146797 587.967957,73.595901 588.104736,71.049522 
	C596.864441,83.789680 605.001770,95.624748 613.396423,108.137024 
M332.013702,111.583878 
	C358.391541,96.350174 362.301453,57.076908 339.854034,35.579334 
	C326.934875,23.206852 310.728455,19.600517 293.610229,19.248566 
	C273.291321,18.830809 252.961960,18.918581 232.637009,18.806818 
	C231.027130,18.797966 229.416397,18.941544 227.605759,19.023327 
	C227.481079,20.395128 227.316467,21.359709 227.316788,22.324236 
	C227.332535,71.305847 227.405121,120.287544 227.302155,169.268875 
	C227.294647,172.840714 228.786987,173.570831 231.710922,173.550964 
	C239.373505,173.498871 247.037277,173.415878 254.698746,173.503845 
	C257.731628,173.538651 258.217346,172.020721 258.203949,169.428635 
	C258.136078,156.267670 258.205475,143.106018 258.224060,129.944595 
	C258.229156,126.332848 258.224823,122.721077 258.224823,118.755913 
	C268.251129,118.755913 277.725006,118.877258 287.192505,118.683769 
	C290.126038,118.623817 291.493347,119.674110 292.885620,122.210373 
	C301.472504,137.852798 310.264771,153.383163 319.097778,168.888687 
	C319.999390,170.471436 321.586884,172.781296 322.917938,172.823959 
	C333.169281,173.152710 343.435883,173.004868 354.999054,173.004868 
	C343.569519,153.524033 332.669617,134.945877 321.719696,116.282532 
	C325.054016,114.724243 328.181885,113.262444 332.013702,111.583878 
M770.499695,173.563553 
	C793.914185,173.563553 817.328674,173.563553 841.092896,173.563553 
	C841.092896,163.202271 841.092896,153.778137 841.092896,143.762573 
	C813.119080,143.762573 785.239258,143.762573 757.148804,143.762573 
	C757.148804,132.401093 757.148804,121.627663 757.148804,110.238876 
	C781.261536,110.238876 805.166138,110.238876 829.314453,110.238876 
	C829.314453,100.718666 829.314453,91.814087 829.314453,82.341446 
	C805.172119,82.341446 781.294617,82.341446 757.234131,82.341446 
	C757.234131,71.038223 757.234131,60.304211 757.234131,49.074486 
	C784.732605,49.074486 811.968506,49.074486 839.405640,49.074486 
	C839.405640,38.853683 839.405640,29.132059 839.405640,19.266773 
	C801.188354,19.266773 763.315186,19.266773 725.311218,19.266773 
	C725.179688,20.459574 725.011841,21.269451 725.012207,22.079241 
	C725.037415,71.234207 725.108826,120.389206 725.046021,169.544037 
	C725.041504,173.066025 726.457397,173.620071 729.509399,173.592010 
	C742.838440,173.469437 756.169434,173.554077 770.499695,173.563553 
M477.352203,155.171463 
	C480.847198,160.023636 484.447205,164.804840 487.794281,169.756973 
	C489.551056,172.356171 491.549774,173.501389 494.803436,173.391235 
	C502.458496,173.132080 510.127625,173.288223 517.791077,173.278519 
	C520.510132,173.275070 523.229126,173.277954 525.948181,173.277954 
	C526.173462,172.803543 526.398804,172.329132 526.624084,171.854721 
	C505.181946,143.083939 483.739807,114.313164 462.203400,85.415932 
	C483.326996,63.726818 504.698914,41.782768 526.949646,18.936363 
	C513.679871,18.936363 502.026367,18.741074 490.388885,19.086042 
	C487.773987,19.163553 484.541595,20.472815 482.734863,22.327145 
	C465.453644,40.063751 448.495911,58.115189 431.259613,75.896240 
	C426.636871,80.665054 421.379791,84.818954 416.460205,89.213768 
	C416.460205,66.387627 416.460205,42.902344 416.460205,19.045612 
	C406.031067,19.045612 396.173920,19.045612 386.461609,19.045612 
	C386.461609,70.569565 386.461609,121.778969 386.461609,173.234177 
	C395.692352,173.234177 404.506958,173.184128 413.320435,173.262039 
	C416.295807,173.288330 416.337860,171.506317 416.340942,169.313370 
	C416.354919,159.318253 416.343903,149.320206 416.618958,139.330856 
	C416.672150,137.399384 417.486481,135.070816 418.761841,133.659149 
	C426.825073,124.734245 435.117004,116.015968 443.316620,107.247498 
	C454.423309,122.862564 465.697540,138.713196 477.352203,155.171463 
M171.895584,85.539642 
	C163.826904,64.710548 155.702820,43.902569 147.749268,23.029612 
	C146.555923,19.897877 144.961288,18.705278 141.532608,18.844130 
	C134.212418,19.140574 126.824257,19.470968 119.555626,18.797701 
	C113.507683,18.237503 111.291656,20.837931 109.314758,26.010248 
	C97.903778,55.865772 86.144829,85.588272 74.510620,115.358513 
	C67.116882,134.278030 59.735081,153.202194 52.055374,172.873672 
	C63.095814,172.873672 73.516838,172.970947 83.929344,172.717728 
	C84.930473,172.693375 86.261009,170.637314 86.788002,169.273102 
	C89.757446,161.586090 92.696297,153.877625 95.271584,146.053391 
	C96.132774,143.436951 97.293465,142.865082 99.860344,142.876205 
	C118.522545,142.957092 137.186630,142.958282 155.847122,142.734421 
	C159.086853,142.695557 160.538574,143.811279 161.622498,146.666168 
	C164.440048,154.087158 167.714813,161.338867 170.392654,168.806732 
	C171.662415,172.347778 173.404358,173.624695 177.216629,173.393723 
	C183.526016,173.011459 189.874481,173.272583 196.206482,173.265381 
	C199.251648,173.261917 202.296799,173.264786 206.488434,173.264786 
	C194.698395,143.428711 183.408279,114.857750 171.895584,85.539642 
M912.843628,132.499969 
	C912.843628,145.779846 912.843628,159.059708 912.843628,172.554047 
	C923.670715,172.554047 934.013428,172.554047 944.710449,172.554047 
	C944.710449,131.221970 944.710449,90.320381 944.710449,48.952126 
	C960.451904,48.952126 975.841064,48.952126 991.344482,48.952126 
	C991.344482,38.748886 991.344482,29.017456 991.344482,19.425613 
	C949.498962,19.425613 907.977966,19.425613 866.494873,19.425613 
	C866.494873,29.460112 866.494873,39.050407 866.494873,49.145584 
	C882.005005,49.145584 897.229126,49.145584 912.842529,49.145584 
	C912.842529,76.936630 912.842529,104.218285 912.843628,132.499969 
z"/>
<path fill="#F9FAFA" opacity="1.000000" stroke="none" 
	d="
M613.267761,107.798416 
	C605.001770,95.624748 596.864441,83.789680 588.104736,71.049522 
	C587.967957,73.595901 587.810303,75.146797 587.812317,76.697479 
	C587.851318,107.010590 587.768738,137.325211 588.102905,167.635208 
	C588.157532,172.590820 586.546814,173.492416 582.180420,173.300827 
	C575.197449,172.994415 568.187744,173.125732 561.194763,173.296936 
	C558.134583,173.371872 556.710876,172.728683 556.721008,169.201813 
	C556.861328,120.558044 556.901855,71.913849 556.836670,23.269934 
	C556.831909,19.695425 557.985718,18.644922 561.437378,18.795954 
	C567.424255,19.057920 573.460999,19.308624 579.415527,18.818991 
	C584.026855,18.439810 586.670532,20.176413 589.221741,23.763716 
	C607.572266,49.566891 626.106323,75.239464 644.544800,100.980209 
	C647.881104,105.637817 651.045349,110.418633 655.455200,114.891640 
	C655.455200,83.135475 655.455200,51.379307 655.455200,19.218525 
	C666.264465,19.218525 676.286560,19.218525 686.704285,19.218525 
	C686.704285,21.791975 686.703186,24.245430 686.704468,26.698883 
	C686.727905,73.676796 686.677124,120.655052 686.889709,167.632111 
	C686.911194,172.369278 685.572388,173.685562 681.000061,173.421555 
	C674.859131,173.066971 668.665405,173.639526 662.522461,173.302155 
	C660.598206,173.196472 658.091553,171.915497 656.991455,170.364136 
	C642.341431,149.705719 627.894226,128.903442 613.267761,107.798416 
z"/>
<path fill="#F8F9F9" opacity="1.000000" stroke="none" 
	d="
M331.661713,111.692261 
	C328.181885,113.262444 325.054016,114.724243 321.719696,116.282532 
	C332.669617,134.945877 343.569519,153.524033 354.999054,173.004868 
	C343.435883,173.004868 333.169281,173.152710 322.917938,172.823959 
	C321.586884,172.781296 319.999390,170.471436 319.097778,168.888687 
	C310.264771,153.383163 301.472504,137.852798 292.885620,122.210373 
	C291.493347,119.674110 290.126038,118.623817 287.192505,118.683769 
	C277.725006,118.877258 268.251129,118.755913 258.224823,118.755913 
	C258.224823,122.721077 258.229156,126.332848 258.224060,129.944595 
	C258.205475,143.106018 258.136078,156.267670 258.203949,169.428635 
	C258.217346,172.020721 257.731628,173.538651 254.698746,173.503845 
	C247.037277,173.415878 239.373505,173.498871 231.710922,173.550964 
	C228.786987,173.570831 227.294647,172.840714 227.302155,169.268875 
	C227.405121,120.287544 227.332535,71.305847 227.316788,22.324236 
	C227.316467,21.359709 227.481079,20.395128 227.605759,19.023327 
	C229.416397,18.941544 231.027130,18.797966 232.637009,18.806818 
	C252.961960,18.918581 273.291321,18.830809 293.610229,19.248566 
	C310.728455,19.600517 326.934875,23.206852 339.854034,35.579334 
	C362.301453,57.076908 358.391541,96.350174 331.661713,111.692261 
M322.099304,67.978706 
	C320.727478,64.629608 319.910797,60.885784 317.868439,58.013496 
	C313.603271,52.015171 307.570221,48.954876 299.954437,49.036629 
	C286.199493,49.184280 272.441864,49.078407 258.380859,49.078407 
	C258.380859,63.370804 258.380859,77.098251 258.380859,91.379707 
	C260.095978,91.379707 261.710663,91.376717 263.325348,91.380188 
	C275.479675,91.406319 287.634125,91.406525 299.788300,91.467819 
	C313.935150,91.539162 322.395966,83.016487 322.099304,67.978706 
z"/>
<path fill="#F8F9F9" opacity="1.000000" stroke="none" 
	d="
M769.999695,173.563538 
	C756.169434,173.554077 742.838440,173.469437 729.509399,173.592010 
	C726.457397,173.620071 725.041504,173.066025 725.046021,169.544037 
	C725.108826,120.389206 725.037415,71.234207 725.012207,22.079241 
	C725.011841,21.269451 725.179688,20.459574 725.311218,19.266773 
	C763.315186,19.266773 801.188354,19.266773 839.405640,19.266773 
	C839.405640,29.132059 839.405640,38.853683 839.405640,49.074486 
	C811.968506,49.074486 784.732605,49.074486 757.234131,49.074486 
	C757.234131,60.304211 757.234131,71.038223 757.234131,82.341446 
	C781.294617,82.341446 805.172119,82.341446 829.314453,82.341446 
	C829.314453,91.814087 829.314453,100.718666 829.314453,110.238876 
	C805.166138,110.238876 781.261536,110.238876 757.148804,110.238876 
	C757.148804,121.627663 757.148804,132.401093 757.148804,143.762573 
	C785.239258,143.762573 813.119080,143.762573 841.092896,143.762573 
	C841.092896,153.778137 841.092896,163.202271 841.092896,173.563553 
	C817.328674,173.563553 793.914185,173.563553 769.999695,173.563538 
z"/>
<path fill="#F9FAFA" opacity="1.000000" stroke="none" 
	d="
M477.161987,154.867645 
	C465.697540,138.713196 454.423309,122.862564 443.316620,107.247498 
	C435.117004,116.015968 426.825073,124.734245 418.761841,133.659149 
	C417.486481,135.070816 416.672150,137.399384 416.618958,139.330856 
	C416.343903,149.320206 416.354919,159.318253 416.340942,169.313370 
	C416.337860,171.506317 416.295807,173.288330 413.320435,173.262039 
	C404.506958,173.184128 395.692352,173.234177 386.461609,173.234177 
	C386.461609,121.778969 386.461609,70.569565 386.461609,19.045612 
	C396.173920,19.045612 406.031067,19.045612 416.460205,19.045612 
	C416.460205,42.902344 416.460205,66.387627 416.460205,89.213768 
	C421.379791,84.818954 426.636871,80.665054 431.259613,75.896240 
	C448.495911,58.115189 465.453644,40.063751 482.734863,22.327145 
	C484.541595,20.472815 487.773987,19.163553 490.388885,19.086042 
	C502.026367,18.741074 513.679871,18.936363 526.949646,18.936363 
	C504.698914,41.782768 483.326996,63.726818 462.203400,85.415932 
	C483.739807,114.313164 505.181946,143.083939 526.624084,171.854721 
	C526.398804,172.329132 526.173462,172.803543 525.948181,173.277954 
	C523.229126,173.277954 520.510132,173.275070 517.791077,173.278519 
	C510.127625,173.288223 502.458496,173.132080 494.803436,173.391235 
	C491.549774,173.501389 489.551056,172.356171 487.794281,169.756973 
	C484.447205,164.804840 480.847198,160.023636 477.161987,154.867645 
z"/>
<path fill="#F9F9FA" opacity="1.000000" stroke="none" 
	d="
M172.006866,85.913216 
	C183.408279,114.857750 194.698395,143.428711 206.488434,173.264786 
	C202.296799,173.264786 199.251648,173.261917 196.206482,173.265381 
	C189.874481,173.272583 183.526016,173.011459 177.216629,173.393723 
	C173.404358,173.624695 171.662415,172.347778 170.392654,168.806732 
	C167.714813,161.338867 164.440048,154.087158 161.622498,146.666168 
	C160.538574,143.811279 159.086853,142.695557 155.847122,142.734421 
	C137.186630,142.958282 118.522545,142.957092 99.860344,142.876205 
	C97.293465,142.865082 96.132774,143.436951 95.271584,146.053391 
	C92.696297,153.877625 89.757446,161.586090 86.788002,169.273102 
	C86.261009,170.637314 84.930473,172.693375 83.929344,172.717728 
	C73.516838,172.970947 63.095814,172.873672 52.055374,172.873672 
	C59.735081,153.202194 67.116882,134.278030 74.510620,115.358513 
	C86.144829,85.588272 97.903778,55.865772 109.314758,26.010248 
	C111.291656,20.837931 113.507683,18.237503 119.555626,18.797701 
	C126.824257,19.470968 134.212418,19.140574 141.532608,18.844130 
	C144.961288,18.705278 146.555923,19.897877 147.749268,23.029612 
	C155.702820,43.902569 163.826904,64.710548 172.006866,85.913216 
M143.139801,93.410202 
	C138.421707,80.238823 133.703629,67.067444 128.975159,53.867069 
	C121.580086,74.283089 114.255852,94.503525 106.811981,115.054260 
	C121.513031,115.054260 135.831772,115.054260 151.017807,115.054260 
	C148.299789,107.729027 145.786224,100.954796 143.139801,93.410202 
z"/>
<path fill="#F8F9FA" opacity="1.000000" stroke="none" 
	d="
M912.843079,131.999954 
	C912.842529,104.218285 912.842529,76.936630 912.842529,49.145584 
	C897.229126,49.145584 882.005005,49.145584 866.494873,49.145584 
	C866.494873,39.050407 866.494873,29.460112 866.494873,19.425613 
	C907.977966,19.425613 949.498962,19.425613 991.344482,19.425613 
	C991.344482,29.017456 991.344482,38.748886 991.344482,48.952126 
	C975.841064,48.952126 960.451904,48.952126 944.710449,48.952126 
	C944.710449,90.320381 944.710449,131.221970 944.710449,172.554047 
	C934.013428,172.554047 923.670715,172.554047 912.843628,172.554047 
	C912.843628,159.059708 912.843628,145.779846 912.843079,131.999954 
z"/>
<path fill="#040404" opacity="1.000000" stroke="none" 
	d="
M322.134399,68.416580 
	C322.395966,83.016487 313.935150,91.539162 299.788300,91.467819 
	C287.634125,91.406525 275.479675,91.406319 263.325348,91.380188 
	C261.710663,91.376717 260.095978,91.379707 258.380859,91.379707 
	C258.380859,77.098251 258.380859,63.370804 258.380859,49.078407 
	C272.441864,49.078407 286.199493,49.184280 299.954437,49.036629 
	C307.570221,48.954876 313.603271,52.015171 317.868439,58.013496 
	C319.910797,60.885784 320.727478,64.629608 322.134399,68.416580 
z"/>
<path fill="#040506" opacity="1.000000" stroke="none" 
	d="
M143.206223,93.795387 
	C145.786224,100.954796 148.299789,107.729027 151.017807,115.054260 
	C135.831772,115.054260 121.513031,115.054260 106.811981,115.054260 
	C114.255852,94.503525 121.580086,74.283089 128.975159,53.867069 
	C133.703629,67.067444 138.421707,80.238823 143.206223,93.795387 
z"/>
</svg>