<?xml version="1.0" encoding="UTF-8"?>
<svg version="1.1" xmlns="http://www.w3.org/2000/svg" width="1008" height="270">
<path d="M0 0 C332.64 0 665.28 0 1008 0 C1008 89.1 1008 178.2 1008 270 C675.36 270 342.72 270 0 270 C0 180.9 0 91.8 0 0 Z " fill="#FDFDFE" transform="translate(0,0)"/>
<path d="M0 0 C0.97259766 -0.02900391 1.94519531 -0.05800781 2.94726562 -0.08789062 C9.27613851 -0.14359499 12.99590687 0.64145716 18.1875 4.3125 C18.1875 5.6325 18.1875 6.9525 18.1875 8.3125 C18.8475 8.3125 19.5075 8.3125 20.1875 8.3125 C21.14528705 11.53873008 21.31636198 14.45342791 21.3203125 17.8125 C21.32160156 18.864375 21.32289063 19.91625 21.32421875 21 C21.32035156 22.093125 21.31648438 23.18625 21.3125 24.3125 C21.31830078 25.9521875 21.31830078 25.9521875 21.32421875 27.625 C21.32292969 28.676875 21.32164062 29.72875 21.3203125 30.8125 C21.31918457 31.7715625 21.31805664 32.730625 21.31689453 33.71875 C21.19957101 36.07053316 20.85531258 38.06302606 20.1875 40.3125 C19.5275 40.3125 18.8675 40.3125 18.1875 40.3125 C18.14625 41.075625 18.105 41.83875 18.0625 42.625 C17.1875 45.3125 17.1875 45.3125 14.83203125 46.96484375 C9.81764535 48.81903789 5.29789458 48.67337811 0 48.5625 C-1.49563477 48.55476563 -1.49563477 48.55476563 -3.02148438 48.546875 C-10.34646124 48.46784625 -10.34646124 48.46784625 -13.8125 47.3125 C-13.8125 46.6525 -13.8125 45.9925 -13.8125 45.3125 C-15.1325 45.3125 -16.4525 45.3125 -17.8125 45.3125 C-21.6019718 38.0630757 -22.02000223 32.63707582 -22.0625 24.5625 C-22.083125 23.59828125 -22.10375 22.6340625 -22.125 21.640625 C-22.1583437 15.50538422 -21.56386567 10.84094505 -18.8125 5.3125 C-17.8225 4.9825 -16.8325 4.6525 -15.8125 4.3125 C-15.4825 3.3225 -15.1525 2.3325 -14.8125 1.3125 C-10.19893919 -0.45799172 -4.86704442 0.04780987 0 0 Z " fill="#F2EDFD" transform="translate(391.8125,187.6875)"/>
<path d="M0 0 C1.93945312 -0.37231445 1.93945312 -0.37231445 4.28125 -0.36328125 C5.54388672 -0.36231445 5.54388672 -0.36231445 6.83203125 -0.36132812 C7.71246094 -0.34521484 8.59289062 -0.32910156 9.5 -0.3125 C10.38042969 -0.31572266 11.26085937 -0.31894531 12.16796875 -0.32226562 C18.73302968 -0.26697032 18.73302968 -0.26697032 21 2 C21.25878906 4.3984375 21.25878906 4.3984375 21.265625 7.375 C21.26949219 8.97601563 21.26949219 8.97601563 21.2734375 10.609375 C21.26570313 11.72828125 21.25796875 12.8471875 21.25 14 C21.25773437 15.11890625 21.26546875 16.2378125 21.2734375 17.390625 C21.27085937 18.45796875 21.26828125 19.5253125 21.265625 20.625 C21.26336914 21.60726562 21.26111328 22.58953125 21.25878906 23.6015625 C21 26 21 26 19 28 C15.85340068 28.4456098 12.67457507 28.32411997 9.5 28.3125 C8.61957031 28.32861328 7.73914063 28.34472656 6.83203125 28.36132812 C5.56939453 28.36229492 5.56939453 28.36229492 4.28125 28.36328125 C3.50845703 28.36626221 2.73566406 28.36924316 1.93945312 28.37231445 C0.97942383 28.1880188 0.97942383 28.1880188 0 28 C-2.17237362 24.74143956 -2.25602651 23.77357656 -2.265625 20 C-2.26820313 19.030625 -2.27078125 18.06125 -2.2734375 17.0625 C-2.26570313 16.051875 -2.25796875 15.04125 -2.25 14 C-2.25773437 12.989375 -2.26546875 11.97875 -2.2734375 10.9375 C-2.27085937 9.968125 -2.26828125 8.99875 -2.265625 8 C-2.26336914 7.113125 -2.26111328 6.22625 -2.25878906 5.3125 C-2 3 -2 3 0 0 Z " fill="#FFFFFF" transform="translate(382,198)"/>
<path d="M0 0 C1.084021 0.00523682 2.16804199 0.01047363 3.28491211 0.01586914 C5.03964844 0.02070312 5.03964844 0.02070312 6.82983398 0.02563477 C8.67738281 0.03820313 8.67738281 0.03820313 10.56225586 0.05102539 C12.41560547 0.05779297 12.41560547 0.05779297 14.30639648 0.06469727 C17.37089703 0.07652931 20.43530307 0.09301366 23.49975586 0.11352539 C23.49975586 0.44352539 23.49975586 0.77352539 23.49975586 1.11352539 C15.24975586 1.11352539 6.99975586 1.11352539 -1.50024414 1.11352539 C-1.50024414 42.36352539 -1.50024414 83.61352539 -1.50024414 126.11352539 C7.07975586 126.11352539 15.65975586 126.11352539 24.49975586 126.11352539 C24.49975586 99.05352539 24.49975586 71.99352539 24.49975586 44.11352539 C29.59617218 48.36053899 32.02079375 50.89508222 35.49975586 56.11352539 C35.00475586 57.10352539 35.00475586 57.10352539 34.49975586 58.11352539 C32.18975586 55.14352539 29.87975586 52.17352539 27.49975586 49.11352539 C27.48944839 50.08849472 27.47914093 51.06346405 27.46852112 52.06797791 C27.37095641 61.23588854 27.26823884 70.40372872 27.1604166 79.57152462 C27.10514538 84.28528898 27.0517188 88.99905949 27.00244141 93.71289062 C26.95485962 98.25813443 26.90251932 102.80330035 26.84681511 107.34845161 C26.82636343 109.08645258 26.8076551 110.82447493 26.79068184 112.56251335 C26.76669982 114.98836916 26.73663726 117.4140764 26.70507812 119.83984375 C26.69932266 120.56560608 26.6935672 121.29136841 26.68763733 122.03912354 C26.61380802 126.99947323 26.61380802 126.99947323 25.49975586 128.11352539 C23.43920276 128.21346071 21.37522996 128.24433445 19.31225586 128.24633789 C18.05670898 128.24762695 16.80116211 128.24891602 15.50756836 128.25024414 C14.85046875 128.24814941 14.19336914 128.24605469 13.51635742 128.24389648 C11.50814251 128.23854773 9.50015127 128.2438423 7.49194336 128.25024414 C6.23639648 128.24895508 4.98084961 128.24766602 3.68725586 128.24633789 C2.52581055 128.24520996 1.36436523 128.24408203 0.16772461 128.24291992 C-2.50024414 128.11352539 -2.50024414 128.11352539 -3.50024414 127.11352539 C-3.59847507 125.48360984 -3.62656363 123.84942553 -3.62722778 122.21655273 C-3.63004761 121.15643982 -3.63286743 120.0963269 -3.63577271 119.00408936 C-3.63374847 117.83106262 -3.63172424 116.65803589 -3.62963867 115.44946289 C-3.63139099 114.22197327 -3.63314331 112.99448364 -3.63494873 111.72979736 C-3.63860698 108.35384261 -3.63773378 104.97794878 -3.63456964 101.60199738 C-3.63204571 98.07637955 -3.63438368 94.55076441 -3.63595581 91.02514648 C-3.63777741 85.10342946 -3.63537146 79.1817249 -3.63061523 73.26000977 C-3.62517263 66.40435729 -3.62693529 59.54873456 -3.63244164 52.69308281 C-3.63697305 46.81708458 -3.63762318 40.94109532 -3.63500297 35.0650959 C-3.63344035 31.55118446 -3.63324602 28.03728702 -3.63653946 24.52337646 C-3.63995246 20.60810176 -3.63522797 16.69286062 -3.62963867 12.77758789 C-3.6316629 11.60456116 -3.63368713 10.43153442 -3.63577271 9.22296143 C-3.63295288 8.16284851 -3.63013306 7.1027356 -3.62722778 6.01049805 C-3.62685076 5.08355133 -3.62647373 4.15660461 -3.62608528 3.2015686 C-3.44060459 0.12394475 -3.09776644 0.14065632 0 0 Z " fill="#D3CEDA" transform="translate(518.500244140625,35.886474609375)"/>
<path d="M0 0 C25.74 0 51.48 0 78 0 C78 0.33 78 0.66 78 1 C52.6532565 2.09155601 27.37248321 2.07712001 2 2 C2 25.43 2 48.86 2 73 C10.21197266 72.98259766 10.21197266 72.98259766 18.58984375 72.96484375 C22.0488293 72.95973694 25.50781024 72.95492317 28.96679688 72.95117188 C34.46249349 72.94518363 39.95817351 72.93808381 45.45385742 72.92456055 C49.88233688 72.913731 54.31079856 72.90772302 58.73929024 72.90512276 C60.43265628 72.90326863 62.12602129 72.89964825 63.81937981 72.89426994 C66.18291232 72.8870586 68.54637045 72.8860091 70.90991211 72.88647461 C71.61697296 72.88287933 72.32403381 72.87928406 73.05252075 72.87557983 C77.88594784 72.88594784 77.88594784 72.88594784 79 74 C79.08748207 75.92667507 79.10697334 77.85651861 79.09765625 79.78515625 C79.09282227 81.53989258 79.09282227 81.53989258 79.08789062 83.33007812 C79.07532227 85.17762695 79.07532227 85.17762695 79.0625 87.0625 C79.05798828 88.29806641 79.05347656 89.53363281 79.04882812 90.80664062 C79.03699608 93.87114117 79.02051173 96.93554721 79 100 C78.67 100 78.34 100 78 100 C78 91.75 78 83.5 78 75 C75.80472656 75.01160156 73.60945312 75.02320313 71.34765625 75.03515625 C47.54438988 75.13011131 23.79642554 74.65419727 0 74 C0 49.58 0 25.16 0 0 Z " fill="#DCD8E2" transform="translate(707,63)"/>
<path d="M0 0 C9.24 0 18.48 0 28 0 C28 42.24 28 84.48 28 128 C17.77 128 7.54 128 -3 128 C-5.66666667 125.33333333 -8.33333333 122.66666667 -11 120 C-10.505 119.01 -10.505 119.01 -10 118 C-8.99403703 118.9520721 -7.99538437 119.91187346 -7 120.875 C-6.443125 121.40867187 -5.88625 121.94234375 -5.3125 122.4921875 C-4 124 -4 124 -4 126 C5.9 126 15.8 126 26 126 C26 84.75 26 43.5 26 1 C17.42 1 8.84 1 0 1 C0 0.67 0 0.34 0 0 Z " fill="#DFDAE6" transform="translate(615,36)"/>
<path d="M0 0 C6.65686814 -0.0505916 13.31368694 -0.0856876 19.97070312 -0.10986328 C22.23667249 -0.11993859 24.50262881 -0.13359918 26.76855469 -0.15087891 C30.02021501 -0.17506011 33.27170387 -0.18646763 36.5234375 -0.1953125 C38.05005508 -0.21079636 38.05005508 -0.21079636 39.60751343 -0.22659302 C40.54833771 -0.22674408 41.48916199 -0.22689514 42.45849609 -0.22705078 C43.28900482 -0.231492 44.11951355 -0.23593323 44.97518921 -0.24050903 C47 0 47 0 49 2 C33.49 1.67 17.98 1.34 2 1 C2.33 16.84 2.66 32.68 3 49 C17.85 49 32.7 49 48 49 C44.53313089 51.31124607 42.98291591 52.12569735 38.91748047 52.11352539 C37.65639969 52.11341209 37.65639969 52.11341209 36.36984253 52.11329651 C35.00727829 52.10555458 35.00727829 52.10555458 33.6171875 52.09765625 C32.68778351 52.0962413 31.75837952 52.09482635 30.80081177 52.09336853 C27.82550876 52.08776053 24.85028036 52.07520668 21.875 52.0625 C19.86067817 52.05748603 17.84635516 52.05292295 15.83203125 52.04882812 C10.88799198 52.0377885 5.94400865 52.02051849 1 52 C0.02360569 49.07081707 -0.12136181 47.20974262 -0.11352539 44.16137695 C-0.11344986 43.1805867 -0.11337433 42.19979645 -0.11329651 41.18928528 C-0.10813522 40.13295395 -0.10297394 39.07662262 -0.09765625 37.98828125 C-0.0962413 36.90491989 -0.09482635 35.82155853 -0.09336853 34.70536804 C-0.08776559 31.24105075 -0.07521258 27.7767978 -0.0625 24.3125 C-0.05748538 21.96549572 -0.05292241 19.61849044 -0.04882812 17.27148438 C-0.03779521 11.51430092 -0.0210542 5.75715506 0 0 Z " fill="#E6E1EB" transform="translate(246,63)"/>
<path d="M0 0 C5.09641632 4.2470136 7.52103789 6.78155683 11 12 C10.67 12.66 10.34 13.32 10 14 C7.69 11.03 5.38 8.06 3 5 C2.67 30.74 2.34 56.48 2 83 C-7.24 83 -16.48 83 -26 83 C-26 82.67 -26 82.34 -26 82 C-17.42 82 -8.84 82 0 82 C0 54.94 0 27.88 0 0 Z " fill="#E8E5EC" transform="translate(543,80)"/>
<path d="M0 0 C14.85 0 29.7 0 45 0 C45.020625 4.104375 45.04125 8.20875 45.0625 12.4375 C45.071604 13.73357178 45.08070801 15.02964355 45.09008789 16.36499023 C45.09258545 17.37762939 45.09508301 18.39026855 45.09765625 19.43359375 C45.10289307 20.47572021 45.10812988 21.51784668 45.11352539 22.59155273 C45 25 45 25 44 26 C42.65455673 26.09785341 41.30407437 26.12797985 39.95507812 26.12939453 C39.09748901 26.13254669 38.2398999 26.13569885 37.35632324 26.13894653 C36.42404907 26.1369223 35.4917749 26.13489807 34.53125 26.1328125 C33.10528503 26.13424759 33.10528503 26.13424759 31.6505127 26.13571167 C29.63631118 26.13639357 27.62210748 26.13453862 25.60791016 26.13037109 C22.51329645 26.12502298 19.4188279 26.13031577 16.32421875 26.13671875 C14.37239551 26.13605797 12.42057236 26.13477681 10.46875 26.1328125 C9.07033875 26.13584885 9.07033875 26.13584885 7.64367676 26.13894653 C6.78608765 26.13579437 5.92849854 26.13264221 5.04492188 26.12939453 C4.28626831 26.12859894 3.52761475 26.12780334 2.74597168 26.12698364 C1 26 1 26 0 25 C-0.08737645 23.14630389 -0.10698153 21.28932459 -0.09765625 19.43359375 C-0.09515869 18.42095459 -0.09266113 17.40831543 -0.09008789 16.36499023 C-0.08098389 15.06891846 -0.07187988 13.77284668 -0.0625 12.4375 C-0.041875 8.333125 -0.02125 4.22875 0 0 Z M1 1 C1 8.59 1 16.18 1 24 C14.86 24 28.72 24 43 24 C43 16.41 43 8.82 43 1 C29.14 1 15.28 1 1 1 Z " fill="#E0D9E9" transform="translate(721,88)"/>
<path d="M0 0 C0.66 0 1.32 0 2 0 C2.66 2.97 3.32 5.94 4 9 C-0.5 11.25 -0.5 11.25 -4.03417969 11.22705078 C-5.20494049 11.22682419 -5.20494049 11.22682419 -6.39935303 11.22659302 C-7.23178528 11.21627045 -8.06421753 11.20594788 -8.921875 11.1953125 C-9.78186096 11.1924826 -10.64184692 11.18965271 -11.52789307 11.18673706 C-14.26873821 11.1755615 -17.00925398 11.15046179 -19.75 11.125 C-21.61067236 11.1149668 -23.47134985 11.10584155 -25.33203125 11.09765625 C-29.88814732 11.07563076 -34.44401786 11.04111897 -39 11 C-38.55527344 12.12019531 -38.11054687 13.24039063 -37.65234375 14.39453125 C-37.08023914 15.8669972 -36.50865135 17.33966403 -35.9375 18.8125 C-35.49567383 19.91948242 -35.49567383 19.91948242 -35.04492188 21.04882812 C-32.88671875 26.66015625 -32.88671875 26.66015625 -34 30 C-35.15208295 27.4401499 -36.29679373 24.87741487 -37.4375 22.3125 C-37.76298828 21.59126953 -38.08847656 20.87003906 -38.42382812 20.12695312 C-41.57898711 13.00344985 -41.57898711 13.00344985 -42 9 C-41 8 -41 8 -39.24729919 7.87974548 C-38.48562943 7.88196609 -37.72395966 7.88418671 -36.93920898 7.88647461 C-36.07839218 7.88655014 -35.21757538 7.88662567 -34.33067322 7.88670349 C-33.39526199 7.89186478 -32.45985077 7.89702606 -31.49609375 7.90234375 C-30.54307877 7.9037587 -29.59006378 7.90517365 -28.60816956 7.90663147 C-25.55124835 7.91224848 -22.49439923 7.92480384 -19.4375 7.9375 C-17.37044376 7.94251281 -15.30338638 7.94707609 -13.23632812 7.95117188 C-8.15752412 7.96222344 -3.0787743 7.97949945 2 8 C1.67 7.236875 1.34 6.47375 1 5.6875 C0 3 0 3 0 0 Z " fill="#E9E2F0" transform="translate(142,128)"/>
<path d="M0 0 C4.34228466 6.51342699 4.33691696 12.66120815 4.3125 20.25 C4.32861328 21.23613281 4.34472656 22.22226563 4.36132812 23.23828125 C4.370567 37.26289386 -0.82351803 47.8647116 -10.5 57.9375 C-14.08181813 61.36572387 -17.55514604 63.8248587 -22 66 C-21.37063561 68.93703384 -20.37579827 71.33788628 -19 74 C-20.17539996 73.07347299 -21.34010577 72.13336613 -22.5 71.1875 C-23.1496875 70.66542969 -23.799375 70.14335937 -24.46875 69.60546875 C-26 68 -26 68 -26 65 C-25.38253906 64.74347656 -24.76507813 64.48695313 -24.12890625 64.22265625 C-13.59621195 59.46130129 -5.7403438 51.60934088 -1 41 C-0.26220431 38.3096541 0.27543954 35.6929382 0.67578125 32.93359375 C1 31 1 31 2 30 C2.12794998 27.1136866 2.18522688 24.26186556 2.1875 21.375 C2.20586914 20.18197266 2.20586914 20.18197266 2.22460938 18.96484375 C2.23709893 13.8940839 1.54997526 9.82011915 0 5 C-0.125 2.0625 -0.125 2.0625 0 0 Z " fill="#E4E0EA" transform="translate(334,67)"/>
<path d="M0 0 C0.33 0 0.66 0 1 0 C1.33 28.71 1.66 57.42 2 87 C1.01 87 0.02 87 -1 87 C-3.1875 84 -3.1875 84 -5 81 C-4.505 80.01 -4.505 80.01 -4 79 C-3.01 79.99 -2.02 80.98 -1 82 C-0.505 41.41 -0.505 41.41 0 0 Z " fill="#E4E0E9" transform="translate(614,38)"/>
<path d="M0 0 C3.875 1.75 3.875 1.75 5 4 C15.56 4 26.12 4 37 4 C36.505 2.02 36.505 2.02 36 0 C38.5 1.8125 38.5 1.8125 41 4 C41 4.99 41 5.98 41 7 C35.96469037 7.1238722 30.93027303 7.21446514 25.89379883 7.2746582 C24.18172755 7.29975714 22.46976296 7.33384429 20.75805664 7.37719727 C18.29286355 7.43805739 15.82909015 7.46625432 13.36328125 7.48828125 C12.22080681 7.52699089 12.22080681 7.52699089 11.05525208 7.56648254 C6.9759026 7.56862115 5.21147897 7.16829839 1.97729492 4.59448242 C0 2 0 2 0 0 Z " fill="#E1DCED" transform="translate(433,157)"/>
<path d="M0 0 C0.66 0 1.32 0 2 0 C6.65725038 8.20170643 9.42701991 16.88429655 12.26660156 25.82519531 C13.01435674 28.04257318 13.86864507 30.19671715 14.7421875 32.3671875 C16 36 16 36 15 39 C14.61328125 37.96101563 14.2265625 36.92203125 13.828125 35.8515625 C11.25389784 28.95243487 8.66193274 22.0714476 5.8671875 15.2578125 C4.66619457 12.13090299 3.72028565 8.93691015 2.80859375 5.71484375 C2.54175781 5.14894531 2.27492188 4.58304687 2 4 C1.01 3.67 0.02 3.34 -1 3 C-0.67 2.01 -0.34 1.02 0 0 Z " fill="#DDD8E6" transform="translate(121,76)"/>
<path d="M0 0 C4.36519815 6.54779722 4.33682688 12.74609037 4.3125 20.375 C4.32861328 21.37789062 4.34472656 22.38078125 4.36132812 23.4140625 C4.36541594 29.66024337 3.57765518 34.30059356 1 40 C-0.13704238 36.58887285 0.46869639 35.32761293 1.50195312 32.015625 C2.40151497 28.3750453 2.28755262 24.73022658 2.25 21 C2.25773437 20.23171875 2.26546875 19.4634375 2.2734375 18.671875 C2.25660753 13.72386517 1.49666995 9.70802871 0 5 C-0.125 2.0625 -0.125 2.0625 0 0 Z " fill="#DDD8E3" transform="translate(334,67)"/>
<path d="M0 0 C0 4.11961359 -1.58892538 6.78523383 -4 10 C-6.87168717 12.8272032 -9.88879272 15.44056666 -13 18 C-13 14.44503028 -12.44233891 13.99763127 -10.15625 11.42578125 C-9.27646484 10.42514648 -9.27646484 10.42514648 -8.37890625 9.40429688 C-7.75886719 8.71400391 -7.13882812 8.02371094 -6.5 7.3125 C-5.87996094 6.61060547 -5.25992187 5.90871094 -4.62109375 5.18554688 C-3.08721507 3.45108406 -1.54673726 1.72299189 0 0 Z " fill="#EBE5F2" transform="translate(432,49)"/>
<path d="M0 0 C4.2777833 1.42592777 6.27621499 3.78404119 8.5625 7.625 C9.92617739 10.25743604 9.92617739 10.25743604 13 12 C15.04413589 14.95264073 16 16.36672806 16 20 C14.62437146 18.71034824 13.29233607 17.37310707 12 16 C12 15.34 12 14.68 12 14 C11.34 14 10.68 14 10 14 C8.20849615 11.88837497 6.53029747 9.77651833 4.875 7.5625 C4.40707031 6.95083984 3.93914063 6.33917969 3.45703125 5.70898438 C0 1.14832362 0 1.14832362 0 0 Z " fill="#E5E0EE" transform="translate(570,113)"/>
<path d="M0 0 C-0.88365234 0.38865234 -0.88365234 0.38865234 -1.78515625 0.78515625 C-4.15357165 2.08423419 -5.60315957 3.4675963 -7.4375 5.4375 C-10.08471612 8.17599944 -12.58314529 10.23980212 -16 12 C-14.65843569 9.09220751 -13.13892965 6.7482101 -11.0625 4.3125 C-10.55847656 3.71050781 -10.05445313 3.10851563 -9.53515625 2.48828125 C-6.68718013 -0.27273377 -3.74942199 -0.10133573 0 0 Z " fill="#F0ECF5" transform="translate(449,37)"/>
<path d="M0 0 C1 2 1 2 0.27734375 4.3359375 C-1.04211339 7.08783283 -2.53505243 9.24387207 -4.4375 11.625 C-5.03433594 12.38039063 -5.63117188 13.13578125 -6.24609375 13.9140625 C-7.75755864 15.71166217 -9.3073603 17.37465179 -11 19 C-9.41467191 14.44435939 -7.00996919 10.68524231 -4.375 6.6875 C-3.95476562 6.04232422 -3.53453125 5.39714844 -3.1015625 4.73242188 C-2.07161759 3.15239276 -1.03634372 1.57583953 0 0 Z " fill="#E0DAE9" transform="translate(74,103)"/>
<path d="M0 0 C0.99 0.33 1.98 0.66 3 1 C3 1.66 3 2.32 3 3 C3.99 3.33 4.98 3.66 6 4 C7.38442 5.96498322 8.71203834 7.97048465 10 10 C11.31543279 11.68083079 12.64316249 13.3524116 14 15 C13.67 15.66 13.34 16.32 13 17 C12.22076172 16.00419922 12.22076172 16.00419922 11.42578125 14.98828125 C6.96773279 9.267924 6.96773279 9.267924 2 4 C1.34 3.34 0.68 2.68 0 2 C0 1.34 0 0.68 0 0 Z " fill="#E8E2EF" transform="translate(556,96)"/>
<path d="M0 0 C0.33 0.66 0.66 1.32 1 2 C-0.87339487 6.33838811 -3.32717367 10.12901015 -6 14 C-6.33 13.01 -6.66 12.02 -7 11 C-5.56640625 8.30078125 -5.56640625 8.30078125 -3.5625 5.3125 C-2.57443359 3.82169922 -2.57443359 3.82169922 -1.56640625 2.30078125 C-1.04949219 1.54152344 -0.53257813 0.78226563 0 0 Z " fill="#E0DAE8" transform="translate(102,56)"/>
<path d="M0 0 C1.17487036 0.75827092 2.33972592 1.53207755 3.5 2.3125 C4.47453125 2.95638672 4.47453125 2.95638672 5.46875 3.61328125 C5.9740625 4.07089844 6.479375 4.52851562 7 5 C7 5.99 7 6.98 7 8 C6.01 8 5.02 8 4 8 C0 2.74285714 0 2.74285714 0 0 Z " fill="#E0DEE8" transform="translate(609,117)"/>
</svg>
