<svg xmlns="http://www.w3.org/2000/svg" width="917" height="158" viewBox="0 0 917 158">
<g>
<path d="M 7.57,142.12 L 7.52,142.03 L 7.76,141.31 L 7.93,140.88 L 8.57,139.60 L 8.93,138.91 L 9.88,137.24 L 11.55,134.48 L 12.15,133.52 L 13.58,131.21 L 14.32,130.03 L 15.88,127.49 L 16.66,126.23 L 18.17,123.77 L 20.15,120.50 L 20.44,120.02 L 21.16,118.84 L 21.54,118.22 L 22.42,116.79 L 23.34,115.32 L 25.50,111.88 L 32.43,100.97 L 33.54,99.25 L 35.66,95.95 L 36.68,94.36 L 38.48,91.55 L 38.90,90.89 L 39.65,89.72 L 40.00,89.16 L 40.60,88.23 L 40.87,87.79 L 41.30,87.12 L 41.70,86.47 L 41.78,86.34 L 42.07,85.87 L 42.23,85.60 L 42.66,84.90 L 43.13,84.14 L 44.40,82.06 L 45.08,80.95 L 46.66,78.37 L 49.20,74.22 L 50.07,72.81 L 51.80,69.96 L 52.66,68.56 L 54.24,65.95 L 54.99,64.71 L 56.23,62.64 L 56.51,62.18 L 56.97,61.40 L 57.50,60.49 L 58.79,58.27 L 61.54,53.58 L 62.94,51.22 L 65.80,46.44 L 67.23,44.05 L 70.06,39.39 L 71.46,37.09 L 74.12,32.77 L 75.41,30.68 L 77.76,26.93 L 78.89,25.14 L 80.79,22.18 L 81.23,21.50 L 82.01,20.33 L 82.38,19.78 L 83.00,18.88 L 83.28,18.47 L 83.72,17.87 L 84.17,17.35 L 84.57,16.98 L 85.50,16.47 L 86.01,16.25 L 87.40,15.98 L 88.19,15.87 L 90.35,15.80 L 90.95,15.79 L 92.36,15.80 L 94.81,15.87 L 96.04,15.91 L 98.34,16.07 L 99.45,16.16 L 101.35,16.40 L 102.23,16.54 L 103.56,16.84 L 104.69,17.32 L 104.77,17.41 L 105.03,17.81 L 105.18,18.04 L 105.56,18.73 L 105.96,19.48 L 107.04,21.68 L 107.61,22.87 L 108.92,25.75 L 111.01,30.50 L 111.71,32.15 L 113.07,35.32 L 113.73,36.85 L 114.89,39.56 L 115.44,40.83 L 116.29,42.78 L 116.47,43.20 L 116.76,43.85 L 117.05,44.50 L 117.11,44.64 L 117.33,45.16 L 117.45,45.45 L 117.79,46.26 L 118.14,47.14 L 119.13,49.58 L 119.65,50.90 L 120.88,53.99 L 122.85,59.00 L 123.19,59.86 L 123.99,61.89 L 124.41,62.95 L 125.35,65.31 L 126.32,67.75 L 128.53,73.26 L 129.65,76.07 L 131.97,81.83 L 135.29,90.00 L 136.32,92.54 L 138.50,97.89 L 139.58,100.56 L 141.67,105.71 L 142.17,106.96 L 143.13,109.31 L 143.59,110.45 L 144.44,112.55 L 144.84,113.55 L 145.55,115.31 L 146.43,117.50 L 146.93,118.74 L 147.91,121.15 L 148.39,122.33 L 149.26,124.44 L 149.67,125.44 L 150.33,127.01 L 150.97,128.50 L 151.83,130.38 L 153.22,133.52 L 153.86,134.98 L 154.79,137.29 L 155.19,138.34 L 155.65,139.79 L 155.81,141.00 L 155.79,141.06 L 154.96,141.19 L 154.43,141.26 L 152.69,141.39 L 151.72,141.46 L 149.20,141.59 L 147.86,141.66 L 144.69,141.79 L 143.03,141.86 L 139.35,141.98 L 137.45,142.04 L 133.38,142.16 L 129.23,142.28 L 120.35,142.47 L 115.90,142.56 L 107.21,142.69 L 105.10,142.72 L 101.09,142.76 L 99.13,142.78 L 95.53,142.79 L 93.80,142.79 L 90.74,142.78 L 89.29,142.77 L 86.91,142.73 L 85.82,142.71 L 84.25,142.63 L 82.95,142.48 L 82.71,142.41 L 82.24,142.11 L 82.00,141.93 L 81.47,141.37 L 81.20,141.05 L 80.59,140.15 L 80.27,139.66 L 79.54,138.37 L 79.15,137.67 L 78.26,135.91 L 77.79,134.97 L 76.70,132.68 L 76.13,131.46 L 74.80,128.58 L 72.52,123.50 L 72.10,122.57 L 71.41,121.07 L 71.11,120.37 L 70.79,119.27 L 70.69,118.77 L 70.91,118.02 L 71.11,117.67 L 72.07,117.19 L 72.66,116.98 L 74.54,116.70 L 75.08,116.65 L 76.36,116.55 L 77.03,116.51 L 78.61,116.45 L 79.43,116.42 L 81.33,116.38 L 82.31,116.36 L 84.55,116.33 L 85.71,116.31 L 88.31,116.28 L 92.65,116.23 L 114.79,115.96 L 112.87,110.73 L 112.33,109.29 L 111.24,106.45 L 110.99,105.79 L 110.55,104.69 L 110.05,103.50 L 109.93,103.22 L 109.49,102.09 L 109.24,101.45 L 108.61,99.74 L 108.28,98.83 L 107.53,96.76 L 106.38,93.50 L 105.61,91.30 L 104.03,87.12 L 103.66,86.16 L 103.02,84.60 L 102.30,83.00 L 101.94,82.31 L 101.39,80.90 L 101.01,79.36 L 101.01,79.21 L 100.89,78.70 L 100.81,78.42 L 100.56,77.72 L 99.51,75.36 L 99.10,74.58 L 98.45,72.84 L 98.01,70.81 L 98.00,70.34 L 97.74,69.46 L 97.12,68.58 L 97.00,68.50 L 96.70,68.03 L 96.54,67.75 L 96.19,66.94 L 95.17,63.77 L 94.87,62.59 L 93.94,60.17 L 93.70,59.60 L 93.21,58.61 L 92.51,57.50 L 92.27,57.20 L 91.91,56.68 L 91.73,56.45 L 91.40,56.19 L 91.23,56.11 L 90.82,56.28 L 90.58,56.43 L 89.96,57.19 L 89.61,57.66 L 88.65,59.17 L 88.38,59.60 L 87.76,60.64 L 87.44,61.19 L 86.70,62.47 L 86.31,63.14 L 85.42,64.69 L 84.96,65.50 L 83.92,67.33 L 83.38,68.28 L 82.17,70.42 L 80.14,74.00 L 78.42,77.03 L 74.63,83.64 L 72.70,87.00 L 68.65,93.99 L 66.61,97.50 L 62.52,104.50 L 60.49,107.97 L 56.58,114.61 L 54.67,117.85 L 51.16,123.74 L 50.32,125.15 L 48.75,127.77 L 47.99,129.04 L 46.60,131.34 L 45.93,132.45 L 44.74,134.39 L 44.18,135.31 L 43.23,136.84 L 42.78,137.55 L 42.09,138.63 L 41.38,139.68 L 39.01,142.86 L 23.50,142.82 L 21.37,142.82 L 17.44,142.76 L 15.57,142.72 L 12.42,142.60 L 11.70,142.57 L 10.46,142.50 L 9.88,142.46 L 8.96,142.38 L 8.54,142.34 L 7.97,142.26 L 7.74,142.21 M 265.90,137.19 L 265.16,136.39 L 263.46,134.49 L 262.59,133.50 L 260.79,131.42 L 259.91,130.37 L 258.24,128.36 L 256.10,125.69 L 251.70,120.00 L 234.37,120.00 L 233.11,120.00 L 230.83,119.99 L 229.73,119.99 L 227.76,119.98 L 226.81,119.98 L 225.13,119.99 L 224.33,120.00 L 222.92,120.05 L 221.57,120.11 L 219.59,120.40 L 218.70,120.59 L 217.49,121.23 L 216.97,121.60 L 216.37,122.72 L 216.13,123.34 L 215.96,125.06 L 215.91,126.01 L 215.98,128.45 L 216.18,133.08 L 216.50,141.50 L 203.25,141.78 L 190.00,142.06 L 190.00,79.03 L 190.00,16.00 L 223.28,16.00 L 227.20,16.00 L 234.34,16.04 L 237.80,16.07 L 244.03,16.18 L 247.03,16.24 L 252.37,16.41 L 254.93,16.50 L 259.39,16.72 L 261.51,16.85 L 265.11,17.14 L 266.81,17.29 L 269.58,17.65 L 270.86,17.84 L 272.81,18.26 L 274.83,18.97 L 275.06,19.09 L 275.87,19.49 L 276.33,19.71 L 277.48,20.26 L 281.50,22.12 L 282.44,22.55 L 284.34,23.65 L 285.30,24.23 L 287.22,25.63 L 289.13,27.09 L 292.81,30.72 L 294.61,32.63 L 297.83,36.92 L 301.80,43.72 L 305.50,51.50 L 305.50,66.50 L 305.50,68.36 L 305.49,71.44 L 305.49,72.88 L 305.45,75.24 L 305.42,76.34 L 305.32,78.15 L 305.26,79.01 L 305.09,80.43 L 304.88,81.79 L 304.12,84.07 L 303.89,84.66 L 303.32,85.93 L 302.25,88.14 L 301.25,90.19 L 298.73,94.18 L 297.40,96.14 L 294.35,99.82 L 292.78,101.61 L 289.36,104.80 L 284.01,108.82 L 283.25,109.29 L 281.84,110.19 L 281.17,110.62 L 280.02,111.35 L 279.49,111.69 L 278.73,112.18 L 278.17,112.56 L 278.15,112.57 L 278.36,112.90 L 278.51,113.11 L 279.03,113.79 L 279.33,114.17 L 280.13,115.15 L 280.57,115.68 L 281.62,116.94 L 282.17,117.60 L 283.43,119.09 L 284.08,119.86 L 285.52,121.54 L 290.36,127.11 L 292.08,129.08 L 295.17,132.73 L 295.91,133.60 L 297.25,135.23 L 297.90,136.02 L 299.05,137.44 L 299.59,138.13 L 300.50,139.31 L 300.93,139.87 L 301.58,140.77 L 301.87,141.18 L 302.22,141.75 L 302.37,142.20 L 302.34,142.26 L 301.96,142.36 L 301.73,142.42 L 300.98,142.51 L 300.56,142.56 L 299.48,142.65 L 298.90,142.69 L 297.54,142.77 L 296.11,142.84 L 292.57,142.94 L 286.59,143.00 L 271.30,143.00 L 265.90,137.19 M 265.00,90.06 L 266.18,89.24 L 268.40,87.39 L 269.48,86.43 L 271.46,84.35 L 272.42,83.29 L 274.13,81.03 L 276.32,77.50 L 276.73,76.74 L 277.38,74.99 L 277.68,74.08 L 278.11,72.11 L 278.49,70.09 L 278.61,65.76 L 278.56,63.60 L 277.84,59.53 L 277.61,58.56 L 276.98,56.80 L 275.82,54.50 L 274.96,53.16 L 273.28,50.96 L 272.43,49.92 L 270.64,48.20 L 269.71,47.39 L 267.64,45.99 L 264.00,44.08 L 262.98,43.62 L 260.96,42.99 L 260.41,42.85 L 259.13,42.63 L 258.45,42.52 L 256.81,42.37 L 255.93,42.30 L 253.77,42.20 L 252.62,42.15 L 249.81,42.09 L 248.31,42.07 L 244.71,42.04 L 238.25,42.02 L 235.33,42.02 L 229.99,42.07 L 228.72,42.09 L 226.38,42.14 L 225.24,42.16 L 223.22,42.23 L 222.25,42.26 L 220.61,42.34 L 219.84,42.37 L 218.63,42.46 L 218.09,42.50 L 217.37,42.60 L 216.92,42.75 L 216.92,42.83 L 216.90,43.44 L 216.89,43.82 L 216.88,44.97 L 216.88,45.61 L 216.86,47.24 L 216.86,48.10 L 216.85,50.11 L 216.84,51.16 L 216.84,53.48 L 216.83,54.67 L 216.83,57.23 L 216.82,59.82 L 216.81,65.39 L 216.81,68.18 L 216.81,73.66 L 216.82,76.33 L 216.83,81.11 L 216.83,82.23 L 216.84,84.24 L 216.84,85.19 L 216.85,86.81 L 216.86,87.56 L 216.87,88.71 L 216.89,89.82 L 217.00,93.14 L 239.25,92.82 L 240.61,92.80 L 243.08,92.76 L 244.28,92.74 L 246.45,92.71 L 247.50,92.69 L 249.39,92.65 L 250.31,92.63 L 251.95,92.59 L 253.53,92.55 L 256.04,92.44 L 257.19,92.38 L 258.98,92.22 L 259.81,92.13 L 261.08,91.90 L 261.66,91.77 L 262.59,91.45 L 263.47,91.11 M 343.25,142.26 L 336.00,141.91 L 336.00,78.96 L 336.00,16.00 L 350.00,16.00 L 364.00,16.00 L 364.00,42.94 L 364.00,46.65 L 364.06,53.44 L 364.08,55.06 L 364.13,58.05 L 364.16,59.50 L 364.22,62.10 L 364.25,63.34 L 364.33,65.46 L 364.37,66.46 L 364.46,68.03 L 364.50,68.74 L 364.60,69.69 L 364.75,70.33 L 364.80,70.36 L 365.14,70.15 L 365.34,70.01 L 365.96,69.47 L 366.30,69.16 L 367.17,68.33 L 367.63,67.88 L 368.71,66.79 L 369.27,66.21 L 370.53,64.90 L 371.18,64.21 L 372.58,62.71 L 377.17,57.64 L 378.59,56.04 L 381.13,53.17 L 382.36,51.77 L 384.62,49.20 L 386.82,46.67 L 390.89,41.90 L 391.92,40.68 L 394.05,38.14 L 395.14,36.83 L 397.47,34.00 L 398.67,32.54 L 401.34,29.28 L 405.84,23.75 L 412.13,16.00 L 431.15,16.00 L 450.18,16.00 L 445.84,20.90 L 445.54,21.23 L 444.73,22.15 L 444.28,22.65 L 443.22,23.85 L 442.65,24.49 L 441.38,25.92 L 440.72,26.66 L 439.28,28.28 L 437.81,29.93 L 434.56,33.58 L 429.60,39.15 L 428.79,40.07 L 426.94,42.14 L 425.99,43.21 L 423.93,45.54 L 421.82,47.91 L 417.26,53.06 L 414.97,55.65 L 410.44,60.78 L 409.33,62.03 L 407.23,64.42 L 404.29,67.76 L 390.87,83.03 L 393.19,85.88 L 393.35,86.08 L 393.98,86.82 L 394.34,87.24 L 395.35,88.40 L 395.89,89.02 L 397.22,90.53 L 397.92,91.32 L 399.52,93.13 L 400.35,94.07 L 402.17,96.12 L 403.11,97.17 L 405.11,99.40 L 411.50,106.54 L 413.29,108.53 L 416.56,112.16 L 418.14,113.93 L 421.02,117.14 L 422.41,118.69 L 424.93,121.50 L 426.14,122.85 L 428.32,125.29 L 429.37,126.46 L 431.23,128.55 L 432.13,129.55 L 433.70,131.33 L 434.45,132.18 L 435.76,133.66 L 436.38,134.37 L 437.45,135.60 L 437.95,136.18 L 438.80,137.18 L 439.20,137.65 L 439.86,138.44 L 440.47,139.19 L 441.22,140.19 L 441.53,140.63 L 441.83,141.18 L 441.97,141.75 L 441.97,141.87 L 441.79,142.08 L 441.66,142.18 L 441.17,142.35 L 440.89,142.43 L 440.09,142.56 L 439.64,142.63 L 438.46,142.73 L 437.83,142.78 L 436.25,142.86 L 435.41,142.89 L 433.41,142.94 L 432.34,142.96 L 429.86,142.99 L 425.57,143.00 L 409.14,143.00 L 404.68,138.25 L 403.09,136.56 L 400.45,133.63 L 399.79,132.88 L 398.41,131.28 L 397.71,130.44 L 396.14,128.53 L 395.32,127.51 L 393.42,125.12 L 392.41,123.84 L 390.02,120.78 L 389.38,119.96 L 388.00,118.18 L 387.29,117.26 L 385.73,115.25 L 384.93,114.21 L 383.19,111.95 L 380.34,108.25 L 379.57,107.25 L 378.07,105.43 L 377.34,104.57 L 376.02,103.13 L 375.40,102.47 L 374.41,101.57 L 373.47,101.00 L 373.30,101.00 L 372.65,101.39 L 372.29,101.63 L 371.36,102.44 L 370.87,102.88 L 369.78,103.99 L 368.09,105.89 L 364.00,110.78 L 364.00,126.89 L 364.00,143.00 L 357.25,142.80 L 356.32,142.77 L 354.06,142.70 L 352.88,142.66 L 350.35,142.56 L 349.08,142.51 L 346.60,142.41 L 345.39,142.36 M 486.70,142.36 L 486.67,142.34 L 486.62,141.96 L 486.60,141.73 L 486.56,140.94 L 486.53,140.50 L 486.49,139.32 L 486.47,138.68 L 486.43,137.13 L 486.40,136.31 L 486.36,134.41 L 486.34,133.42 L 486.31,131.20 L 486.29,130.05 L 486.25,127.52 L 486.24,126.22 L 486.20,123.40 L 486.17,120.52 L 486.12,114.01 L 486.09,110.64 L 486.05,103.27 L 486.04,99.49 L 486.01,91.45 L 486.00,78.80 L 486.00,15.94 L 498.73,16.22 L 511.45,16.50 L 523.34,30.50 L 525.31,32.82 L 529.05,37.23 L 530.89,39.39 L 534.37,43.51 L 536.09,45.53 L 539.32,49.35 L 540.91,51.23 L 543.92,54.79 L 545.39,56.54 L 548.17,59.84 L 549.53,61.46 L 552.10,64.51 L 553.36,66.01 L 555.72,68.83 L 556.88,70.22 L 559.05,72.82 L 560.11,74.10 L 562.10,76.50 L 563.08,77.68 L 564.90,79.88 L 566.68,82.05 L 569.78,85.85 L 571.26,87.67 L 573.82,90.87 L 577.14,95.10 L 577.98,96.19 L 579.56,98.17 L 580.32,99.11 L 581.64,100.68 L 582.25,101.40 L 583.15,102.38 L 583.87,103.00 L 583.90,103.00 L 583.94,102.77 L 583.96,102.63 L 583.99,102.11 L 584.03,101.53 L 584.10,99.57 L 584.13,98.46 L 584.18,95.55 L 584.20,93.98 L 584.23,90.22 L 584.25,88.25 L 584.27,83.78 L 584.28,81.46 L 584.28,76.39 L 584.28,73.79 L 584.26,68.24 L 584.22,59.50 L 583.94,16.00 L 597.34,16.00 L 610.74,16.00 L 611.29,20.75 L 611.30,20.86 L 611.33,21.39 L 611.34,21.71 L 611.36,22.64 L 611.37,23.15 L 611.39,24.44 L 611.40,25.13 L 611.41,26.77 L 611.42,27.63 L 611.43,29.58 L 611.44,30.59 L 611.45,32.84 L 611.47,35.14 L 611.48,40.51 L 611.49,43.30 L 611.50,49.48 L 611.50,52.65 L 611.51,59.43 L 611.51,62.87 L 611.50,70.02 L 611.50,73.63 L 611.48,80.96 L 611.48,84.62 L 611.46,91.91 L 611.45,95.53 L 611.42,102.56 L 611.41,106.02 L 611.38,112.59 L 611.37,115.79 L 611.33,121.67 L 611.31,124.51 L 611.27,129.50 L 611.26,130.69 L 611.24,132.85 L 611.23,133.89 L 611.21,135.76 L 611.20,136.65 L 611.18,138.19 L 611.16,138.92 L 611.14,140.11 L 611.13,140.66 L 611.10,141.48 L 611.06,142.25 L 611.06,142.30 L 610.76,142.40 L 610.57,142.45 L 609.93,142.54 L 609.56,142.59 L 608.61,142.67 L 608.10,142.71 L 606.87,142.78 L 605.59,142.85 L 602.37,142.94 L 596.88,143.00 L 582.77,143.00 L 579.29,139.25 L 578.81,138.73 L 577.46,137.20 L 576.73,136.37 L 575.03,134.38 L 569.66,127.94 L 569.23,127.42 L 568.06,126.00 L 567.43,125.23 L 565.89,123.36 L 565.07,122.38 L 563.22,120.16 L 562.26,119.01 L 560.17,116.49 L 558.02,113.92 L 553.28,108.26 L 546.00,99.59 L 543.59,96.73 L 538.67,90.83 L 536.23,87.91 L 531.63,82.36 L 530.53,81.03 L 528.48,78.54 L 527.48,77.33 L 525.70,75.15 L 524.85,74.10 L 523.39,72.31 L 521.66,70.15 L 520.72,68.96 L 518.94,66.76 L 518.08,65.71 L 516.57,63.94 L 515.87,63.13 L 514.82,61.98 L 514.59,61.74 L 514.25,61.41 L 513.93,61.17 L 513.86,61.15 L 513.73,61.88 L 513.67,62.37 L 513.54,64.08 L 513.48,65.05 L 513.37,67.64 L 513.31,69.04 L 513.20,72.44 L 513.15,74.24 L 513.06,78.37 L 513.01,80.52 L 512.93,85.30 L 512.90,87.76 L 512.83,93.11 L 512.76,101.67 L 512.50,142.50 L 499.95,142.78 L 498.22,142.82 L 495.02,142.83 L 493.48,142.83 L 490.87,142.77 L 489.67,142.73 L 487.96,142.61 L 487.60,142.58 L 487.09,142.50 L 486.88,142.45 M 649.00,79.60 L 649.00,16.00 L 701.53,16.00 L 754.06,16.00 L 753.78,29.25 L 753.50,42.50 L 715.25,42.76 L 677.00,43.02 L 677.00,79.51 L 677.00,116.00 L 715.39,116.00 L 717.26,116.00 L 720.74,116.00 L 722.44,116.01 L 725.61,116.01 L 727.15,116.02 L 730.02,116.03 L 731.42,116.04 L 733.99,116.06 L 735.24,116.07 L 737.54,116.09 L 738.66,116.11 L 740.69,116.14 L 742.66,116.17 L 745.86,116.26 L 747.35,116.31 L 749.65,116.43 L 750.70,116.49 L 752.20,116.65 L 752.87,116.73 L 753.68,116.92 L 754.22,117.25 L 754.24,117.31 L 754.27,117.65 L 754.29,117.85 L 754.32,118.46 L 754.34,119.12 L 754.38,121.08 L 754.39,122.14 L 754.40,124.67 L 754.40,125.99 L 754.39,128.81 L 754.38,130.23 L 754.35,133.05 L 754.33,134.43 L 754.27,136.95 L 754.24,138.15 L 754.18,140.08 L 754.06,142.00 L 754.05,142.02 L 753.78,142.05 L 753.59,142.07 L 752.97,142.11 L 752.62,142.13 L 751.67,142.16 L 751.15,142.18 L 749.89,142.22 L 749.22,142.24 L 747.67,142.28 L 746.86,142.30 L 745.03,142.34 L 743.13,142.38 L 738.59,142.46 L 736.21,142.50 L 730.81,142.57 L 728.01,142.61 L 721.89,142.68 L 718.75,142.71 L 712.05,142.77 L 701.50,142.85 L 649.00,143.21 L 649.00,79.60 M 830.00,92.53 L 830.00,43.00 L 811.50,43.00 L 793.00,43.00 L 793.00,29.50 L 793.00,16.00 L 845.50,16.00 L 898.00,16.00 L 898.00,28.87 L 898.00,41.74 L 894.25,42.36 L 893.99,42.40 L 893.17,42.48 L 892.70,42.52 L 891.51,42.60 L 890.88,42.64 L 889.37,42.71 L 888.59,42.74 L 886.83,42.80 L 885.02,42.86 L 880.86,42.94 L 874.26,42.99 L 858.02,43.00 L 857.76,92.25 L 857.50,141.50 L 843.75,141.78 L 830.00,142.06 L 830.00,92.53 M 691.00,80.00 L 691.00,68.00 L 712.50,68.00 L 734.00,68.00 L 734.00,80.00 L 734.00,92.00 L 712.50,92.00 L 691.00,92.00 L 691.00,80.00 Z" fill="currentColor"/>
</g>
</svg>