<svg xmlns="http://www.w3.org/2000/svg" width="1008" height="270" viewBox="0 0 1008 270">
<g>
<path d="M 215.00,258.09 L 213.78,257.84 L 211.57,257.04 L 210.51,256.60 L 208.65,255.41 L 207.77,254.78 L 206.31,253.23 L 204.59,250.54 L 204.42,250.19 L 204.14,249.37 L 204.00,248.92 L 203.78,247.82 L 203.67,247.22 L 203.50,245.73 L 203.42,244.92 L 203.30,242.92 L 203.24,241.84 L 203.15,239.21 L 203.11,237.81 L 203.06,234.44 L 203.04,232.65 L 203.01,228.43 L 203.00,221.00 L 203.00,219.16 L 203.01,215.80 L 203.01,214.17 L 203.03,211.20 L 203.04,209.76 L 203.07,207.16 L 203.09,205.91 L 203.15,203.64 L 203.19,202.55 L 203.28,200.60 L 203.33,199.66 L 203.45,197.98 L 203.59,196.37 L 203.98,193.86 L 204.21,192.71 L 204.82,190.93 L 205.16,190.11 L 206.04,188.84 L 206.51,188.24 L 207.69,187.24 L 209.86,185.77 L 210.75,185.21 L 212.51,184.47 L 213.03,184.31 L 214.40,184.07 L 215.16,183.96 L 217.21,183.80 L 218.34,183.72 L 221.32,183.63 L 222.14,183.61 L 223.99,183.58 L 224.96,183.56 L 227.14,183.54 L 228.28,183.53 L 230.82,183.52 L 232.13,183.51 L 235.07,183.51 L 236.59,183.50 L 239.95,183.50 L 245.50,183.50 L 277.50,183.50 L 277.80,190.25 L 278.09,197.00 L 247.55,197.00 L 217.00,197.00 L 217.00,221.00 L 217.00,245.00 L 247.55,245.00 L 278.09,245.00 L 277.80,251.75 L 277.50,258.50 L 248.00,258.64 L 243.94,258.66 L 236.27,258.64 L 234.42,258.63 L 230.94,258.60 L 229.24,258.58 L 226.14,258.54 L 224.64,258.51 L 222.01,258.45 L 220.76,258.42 L 218.69,258.35 L 217.73,258.31 L 216.31,258.22 L 215.68,258.18 M 297.22,258.31 L 296.73,258.24 L 295.60,257.87 L 295.02,257.64 L 293.79,256.99 L 290.08,254.18 L 289.45,253.59 L 288.42,252.44 L 287.93,251.85 L 287.14,250.53 L 286.78,249.83 L 286.22,248.12 L 285.96,247.20 L 285.59,244.86 L 285.42,243.60 L 285.21,240.41 L 285.17,239.55 L 285.11,237.63 L 285.08,236.64 L 285.05,234.43 L 285.03,233.29 L 285.03,230.76 L 285.03,229.45 L 285.05,226.57 L 285.06,225.09 L 285.09,221.83 L 285.17,216.49 L 285.19,214.92 L 285.23,212.06 L 285.25,210.67 L 285.30,208.16 L 285.33,206.95 L 285.38,204.76 L 285.41,203.70 L 285.49,201.81 L 285.56,199.99 L 285.79,197.10 L 285.92,195.77 L 286.29,193.69 L 286.50,192.73 L 287.05,191.25 L 287.36,190.55 L 288.16,189.42 L 288.59,188.88 L 289.68,187.88 L 291.69,186.29 L 295.34,183.50 L 322.42,183.50 L 324.30,183.50 L 327.74,183.50 L 329.41,183.51 L 332.44,183.53 L 333.91,183.54 L 336.56,183.57 L 337.84,183.59 L 340.14,183.65 L 341.25,183.68 L 343.23,183.77 L 344.19,183.81 L 345.88,183.94 L 347.52,184.07 L 350.04,184.46 L 351.20,184.68 L 352.97,185.29 L 353.78,185.62 L 355.04,186.49 L 355.62,186.96 L 356.61,188.14 L 358.04,190.30 L 358.49,191.04 L 359.11,192.76 L 359.24,193.27 L 359.45,194.59 L 359.55,195.31 L 359.70,197.20 L 359.76,198.22 L 359.85,200.86 L 359.89,202.28 L 359.94,205.86 L 359.95,206.82 L 359.97,208.95 L 359.97,210.05 L 359.98,212.48 L 359.99,213.73 L 359.99,216.48 L 359.99,221.00 L 359.99,223.45 L 360.00,227.88 L 360.01,230.02 L 359.99,233.87 L 359.98,235.72 L 359.90,239.02 L 359.85,240.60 L 359.68,243.40 L 359.57,244.73 L 359.26,247.07 L 359.08,248.18 L 358.58,250.09 L 358.31,251.00 L 357.60,252.53 L 357.21,253.25 L 356.24,254.45 L 355.72,255.01 L 354.45,255.91 L 353.78,256.33 L 352.18,256.98 L 351.33,257.28 L 349.35,257.71 L 348.32,257.91 L 345.93,258.18 L 344.68,258.30 L 341.84,258.44 L 340.36,258.50 L 337.03,258.56 L 335.29,258.59 L 331.43,258.60 L 325.00,258.63 L 321.63,258.64 L 315.23,258.64 L 313.68,258.64 L 310.76,258.62 L 309.34,258.61 L 306.73,258.59 L 305.48,258.57 L 303.25,258.54 L 302.19,258.52 L 300.43,258.47 L 299.61,258.45 L 298.38,258.40 L 297.84,258.37 M 346.50,221.00 L 346.50,197.50 L 323.00,197.50 L 299.50,197.50 L 299.23,219.98 L 299.19,223.07 L 299.16,228.81 L 299.16,230.18 L 299.16,232.74 L 299.17,233.99 L 299.19,236.23 L 299.20,237.31 L 299.23,239.17 L 299.24,240.05 L 299.28,241.47 L 299.31,242.12 L 299.36,243.03 L 299.46,243.75 L 299.50,243.87 L 299.84,244.09 L 300.05,244.19 L 300.76,244.36 L 301.17,244.44 L 302.33,244.57 L 302.96,244.63 L 304.63,244.72 L 305.53,244.76 L 307.77,244.81 L 308.97,244.83 L 311.85,244.84 L 313.38,244.84 L 316.97,244.83 L 323.23,244.77 L 346.50,244.50 L 346.50,221.00 M 380.22,258.31 L 379.73,258.24 L 378.60,257.87 L 378.02,257.64 L 376.79,256.99 L 373.08,254.18 L 372.45,253.59 L 371.41,252.45 L 370.92,251.86 L 370.14,250.54 L 369.78,249.83 L 369.22,248.03 L 368.97,247.04 L 368.61,244.49 L 368.53,243.79 L 368.40,242.20 L 368.34,241.37 L 368.25,239.50 L 368.21,238.52 L 368.15,236.32 L 368.12,235.18 L 368.09,232.62 L 368.08,231.29 L 368.08,228.34 L 368.08,226.81 L 368.09,223.43 L 368.10,221.68 L 368.14,217.83 L 368.20,211.50 L 368.50,183.50 L 375.24,183.20 L 381.97,182.91 L 382.24,213.70 L 382.50,244.50 L 406.00,244.50 L 429.50,244.50 L 429.76,213.75 L 430.03,183.00 L 436.51,183.00 L 443.00,183.00 L 443.00,215.75 L 443.00,218.58 L 443.01,223.70 L 443.02,226.17 L 443.01,230.60 L 443.01,232.73 L 442.95,236.52 L 442.91,238.34 L 442.75,241.55 L 442.66,243.08 L 442.36,245.74 L 442.19,247.01 L 441.72,249.19 L 441.45,250.22 L 440.76,251.95 L 440.38,252.77 L 439.43,254.12 L 438.91,254.74 L 437.66,255.75 L 436.99,256.21 L 435.40,256.93 L 434.55,257.25 L 432.58,257.73 L 431.54,257.94 L 429.14,258.22 L 427.88,258.34 L 425.02,258.48 L 423.53,258.54 L 420.17,258.59 L 418.42,258.61 L 414.52,258.61 L 408.00,258.63 L 404.63,258.64 L 398.23,258.64 L 396.68,258.64 L 393.76,258.62 L 392.34,258.61 L 389.73,258.59 L 388.48,258.57 L 386.25,258.54 L 385.19,258.52 L 383.43,258.47 L 382.61,258.45 L 381.38,258.40 L 380.84,258.37 M 452.00,220.97 L 452.00,182.85 L 484.33,183.18 L 516.66,183.50 L 520.44,186.38 L 521.47,187.17 L 523.51,189.40 L 523.98,189.96 L 524.77,191.08 L 525.61,192.60 L 525.84,193.17 L 526.23,195.05 L 526.41,196.09 L 526.68,198.70 L 526.80,200.07 L 526.95,203.15 L 527.01,204.72 L 527.04,208.00 L 527.04,209.64 L 526.95,212.85 L 526.89,214.42 L 526.68,217.30 L 526.56,218.67 L 526.23,220.95 L 525.61,223.40 L 525.19,224.39 L 523.71,226.42 L 522.89,227.41 L 520.90,229.19 L 519.87,230.02 L 517.76,231.23 L 517.25,231.49 L 516.26,231.83 L 514.91,232.07 L 514.08,232.09 L 512.76,232.19 L 512.15,232.25 L 511.27,232.47 L 510.89,232.61 L 510.48,233.04 L 510.34,233.30 L 510.42,234.03 L 510.52,234.43 L 511.11,235.53 L 511.47,236.14 L 512.59,237.69 L 513.22,238.53 L 514.89,240.61 L 518.03,244.42 L 519.27,245.92 L 521.52,248.77 L 522.59,250.16 L 524.34,252.58 L 524.73,253.14 L 525.40,254.15 L 525.71,254.62 L 526.19,255.42 L 526.40,255.80 L 526.66,256.36 L 526.78,256.90 L 526.72,257.22 L 526.31,257.69 L 526.03,257.91 L 525.07,258.23 L 524.50,258.37 L 522.83,258.58 L 519.34,258.79 L 512.21,259.08 L 501.38,246.04 L 490.56,233.00 L 478.31,233.00 L 466.06,233.00 L 465.78,245.75 L 465.50,258.50 L 458.75,258.80 L 452.00,259.09 L 452.00,220.97 M 513.00,208.00 L 513.00,197.00 L 489.50,197.00 L 466.00,197.00 L 466.00,208.00 L 466.00,219.00 L 489.50,219.00 L 513.00,219.00 L 513.00,208.00 M 535.00,221.00 L 535.00,182.91 L 541.75,183.20 L 548.50,183.50 L 548.50,221.00 L 548.50,258.50 L 541.75,258.80 L 535.00,259.09 L 535.00,221.00 M 557.46,257.75 L 557.42,257.66 L 557.36,256.75 L 557.34,256.18 L 557.29,254.38 L 557.27,253.38 L 557.23,250.79 L 557.22,249.41 L 557.19,246.14 L 557.18,244.43 L 557.17,240.58 L 557.17,238.59 L 557.17,234.27 L 557.18,232.05 L 557.19,227.35 L 557.24,220.00 L 557.50,183.50 L 591.75,183.24 L 626.00,182.97 L 626.00,189.99 L 626.00,197.00 L 598.50,197.00 L 571.00,197.00 L 571.00,205.50 L 571.00,214.00 L 593.00,214.00 L 615.00,214.00 L 615.00,221.00 L 615.00,228.00 L 593.00,228.00 L 571.00,228.00 L 571.00,236.50 L 571.00,245.00 L 598.50,245.00 L 626.00,245.00 L 626.00,252.00 L 626.00,259.00 L 591.97,259.00 L 590.32,259.00 L 587.24,259.00 L 585.73,258.99 L 582.93,258.99 L 580.19,258.98 L 575.51,258.94 L 573.28,258.92 L 569.56,258.86 L 567.81,258.83 L 564.96,258.74 L 563.64,258.69 L 561.59,258.57 L 560.65,258.51 L 559.30,258.35 L 558.70,258.27 L 557.96,258.08 L 557.66,257.98 M 634.00,220.97 L 634.00,182.85 L 666.33,183.18 L 698.66,183.50 L 702.44,186.38 L 703.47,187.17 L 705.51,189.40 L 705.98,189.96 L 706.77,191.08 L 707.61,192.60 L 707.84,193.17 L 708.23,195.05 L 708.41,196.09 L 708.68,198.70 L 708.80,200.07 L 708.95,203.15 L 709.01,204.72 L 709.04,208.00 L 709.04,209.64 L 708.95,212.85 L 708.89,214.42 L 708.68,217.30 L 708.56,218.67 L 708.23,220.95 L 707.61,223.40 L 707.19,224.39 L 705.71,226.42 L 704.89,227.41 L 702.90,229.19 L 701.87,230.02 L 699.76,231.23 L 699.25,231.49 L 698.26,231.83 L 696.91,232.07 L 696.08,232.09 L 694.76,232.19 L 694.15,232.25 L 693.27,232.47 L 692.89,232.61 L 692.48,233.04 L 692.34,233.30 L 692.42,234.03 L 692.52,234.43 L 693.11,235.53 L 693.47,236.14 L 694.59,237.69 L 695.22,238.53 L 696.89,240.61 L 700.03,244.42 L 701.27,245.92 L 703.52,248.77 L 704.59,250.16 L 706.34,252.58 L 706.73,253.14 L 707.40,254.15 L 707.71,254.62 L 708.19,255.42 L 708.40,255.80 L 708.66,256.36 L 708.78,256.90 L 708.72,257.22 L 708.31,257.69 L 708.03,257.91 L 707.07,258.23 L 706.50,258.37 L 704.83,258.58 L 701.34,258.79 L 694.21,259.08 L 683.38,246.04 L 672.56,233.00 L 660.31,233.00 L 648.06,233.00 L 647.78,245.75 L 647.50,258.50 L 640.75,258.80 L 634.00,259.09 L 634.00,220.97 M 695.00,208.00 L 695.00,197.00 L 671.50,197.00 L 648.00,197.00 L 648.00,208.00 L 648.00,219.00 L 671.50,219.00 L 695.00,219.00 L 695.00,208.00 M 727.73,258.08 L 726.87,257.91 L 725.24,257.32 L 724.45,257.00 L 722.99,256.14 L 722.27,255.68 L 720.99,254.58 L 720.37,254.00 L 719.28,252.68 L 718.76,251.99 L 717.89,250.48 L 717.49,249.71 L 716.86,248.03 L 716.58,247.18 L 716.22,245.37 L 716.00,242.55 L 716.00,238.00 L 723.00,238.00 L 730.00,238.00 L 730.00,241.50 L 730.00,245.00 L 753.50,245.00 L 777.00,245.00 L 777.00,236.50 L 777.00,228.00 L 751.65,228.00 L 750.10,228.00 L 747.29,228.00 L 745.93,228.00 L 743.46,227.99 L 742.26,227.99 L 740.11,227.98 L 739.07,227.97 L 737.20,227.96 L 735.41,227.94 L 732.57,227.86 L 731.26,227.82 L 729.25,227.69 L 728.33,227.62 L 726.94,227.42 L 726.30,227.31 L 725.31,227.02 L 722.90,225.73 L 722.17,225.24 L 720.91,224.26 L 720.32,223.76 L 719.33,222.69 L 718.87,222.14 L 718.12,220.92 L 717.77,220.28 L 717.23,218.82 L 716.98,218.05 L 716.63,216.27 L 716.48,215.34 L 716.29,213.17 L 716.21,212.03 L 716.16,209.39 L 716.21,204.82 L 716.25,203.24 L 716.36,200.55 L 716.42,199.27 L 716.61,197.11 L 716.71,196.09 L 717.01,194.37 L 717.18,193.55 L 717.63,192.15 L 717.88,191.49 L 718.52,190.32 L 718.87,189.75 L 719.74,188.71 L 720.20,188.20 L 721.34,187.18 L 723.39,185.56 L 724.04,185.07 L 725.53,184.41 L 725.99,184.27 L 727.19,184.05 L 727.85,183.94 L 729.63,183.79 L 730.61,183.73 L 733.17,183.63 L 734.56,183.59 L 738.09,183.55 L 739.05,183.54 L 741.17,183.52 L 742.27,183.52 L 744.71,183.51 L 745.97,183.50 L 748.75,183.50 L 753.32,183.50 L 754.86,183.50 L 757.69,183.50 L 759.06,183.50 L 761.57,183.51 L 762.79,183.51 L 765.01,183.53 L 766.09,183.53 L 768.04,183.55 L 769.92,183.57 L 772.97,183.64 L 774.38,183.68 L 776.62,183.79 L 777.65,183.86 L 779.25,184.02 L 779.98,184.12 L 781.10,184.35 L 783.50,185.33 L 784.71,186.08 L 786.63,187.70 L 787.51,188.55 L 788.81,190.49 L 789.39,191.52 L 790.17,193.92 L 790.82,198.20 L 791.24,204.00 L 784.12,204.00 L 777.00,204.00 L 777.00,200.50 L 777.00,197.00 L 753.50,197.00 L 730.00,197.00 L 730.00,205.41 L 730.00,213.82 L 755.25,214.16 L 756.97,214.18 L 760.12,214.23 L 761.64,214.25 L 764.40,214.31 L 765.74,214.33 L 768.16,214.39 L 769.33,214.43 L 771.43,214.51 L 772.44,214.55 L 774.26,214.65 L 775.13,214.70 L 776.68,214.83 L 778.17,214.97 L 780.50,215.36 L 781.57,215.57 L 783.24,216.15 L 784.02,216.47 L 785.26,217.28 L 785.85,217.72 L 786.89,218.82 L 788.50,220.83 L 788.94,221.42 L 789.56,222.66 L 789.83,223.35 L 790.16,225.26 L 790.23,225.80 L 790.33,227.13 L 790.38,227.84 L 790.44,229.55 L 790.46,230.46 L 790.49,232.64 L 790.50,236.50 L 790.50,237.93 L 790.49,240.36 L 790.48,241.51 L 790.44,243.45 L 790.41,244.36 L 790.33,245.87 L 790.29,246.58 L 790.16,247.74 L 790.02,248.84 L 789.56,250.34 L 788.50,252.17 L 787.93,252.93 L 786.89,254.18 L 786.37,254.77 L 785.26,255.72 L 784.68,256.16 L 783.27,256.85 L 782.51,257.16 L 780.58,257.63 L 779.53,257.84 L 776.85,258.14 L 776.12,258.20 L 774.48,258.31 L 773.63,258.36 L 771.73,258.43 L 770.74,258.47 L 768.55,258.53 L 767.41,258.55 L 764.90,258.59 L 763.59,258.61 L 760.73,258.64 L 756.00,258.68 L 752.63,258.70 L 746.19,258.69 L 744.63,258.68 L 741.68,258.65 L 740.24,258.63 L 737.59,258.58 L 736.31,258.55 L 734.03,258.48 L 732.95,258.45 L 731.13,258.37 L 730.28,258.33 L 728.99,258.23 L 728.41,258.19 M 440.32,164.30 L 440.02,164.25 L 439.13,163.73 L 438.64,163.41 L 437.49,162.48 L 433.73,158.69 L 433.36,158.25 L 432.49,157.20 L 432.03,156.64 L 431.01,155.37 L 429.95,154.05 L 427.50,150.93 L 426.24,149.31 L 423.53,145.79 L 422.16,144.01 L 419.40,140.37 L 418.04,138.56 L 415.44,135.08 L 414.19,133.39 L 411.97,130.36 L 411.45,129.64 L 410.51,128.33 L 410.06,127.70 L 409.29,126.61 L 408.93,126.08 L 408.35,125.23 L 407.73,124.25 L 407.20,123.36 L 406.03,121.97 L 405.75,121.68 L 405.25,121.29 L 404.65,121.06 L 404.49,121.06 L 403.91,121.49 L 403.58,121.76 L 402.74,122.62 L 402.29,123.09 L 401.30,124.27 L 399.75,126.29 L 396.00,131.47 L 396.00,147.74 L 396.00,164.00 L 381.00,164.00 L 366.00,164.00 L 366.00,100.00 L 366.00,36.00 L 381.06,36.00 L 396.12,36.00 L 395.81,64.00 L 395.79,65.93 L 395.76,69.63 L 395.74,71.44 L 395.73,74.87 L 395.73,76.55 L 395.73,79.63 L 395.73,81.12 L 395.75,83.78 L 395.76,85.04 L 395.79,87.20 L 395.81,88.21 L 395.85,89.79 L 395.88,90.50 L 395.94,91.43 L 396.04,92.00 L 396.08,92.00 L 396.62,91.43 L 396.97,91.05 L 398.09,89.79 L 398.72,89.08 L 400.34,87.20 L 401.21,86.19 L 403.27,83.78 L 404.36,82.51 L 406.80,79.63 L 408.06,78.14 L 410.81,74.87 L 412.22,73.20 L 415.21,69.62 L 419.91,64.00 L 443.24,36.00 L 462.62,36.00 L 465.29,36.00 L 470.15,36.06 L 471.30,36.08 L 473.44,36.13 L 474.47,36.16 L 476.31,36.23 L 477.19,36.27 L 478.68,36.35 L 479.38,36.39 L 480.47,36.48 L 480.96,36.53 L 481.60,36.63 L 482.00,36.79 L 482.00,36.89 L 481.55,37.56 L 481.25,37.96 L 480.31,39.11 L 479.79,39.72 L 478.48,41.19 L 476.25,43.59 L 475.46,44.42 L 473.50,46.51 L 472.49,47.61 L 470.28,50.02 L 469.17,51.23 L 466.98,53.66 L 464.00,57.01 L 463.11,58.03 L 460.84,60.60 L 459.66,61.94 L 457.06,64.90 L 455.75,66.39 L 453.12,69.37 L 449.50,73.48 L 448.40,74.72 L 445.88,77.59 L 444.60,79.05 L 441.94,82.08 L 440.63,83.58 L 438.16,86.40 L 435.01,90.02 L 433.22,92.08 L 429.61,96.18 L 428.78,97.13 L 427.34,98.75 L 425.76,100.50 L 425.01,101.32 L 423.83,102.91 L 423.58,103.27 L 423.25,103.88 L 423.04,104.50 L 423.05,104.64 L 423.47,105.34 L 423.74,105.74 L 424.60,106.87 L 425.07,107.48 L 426.26,108.89 L 428.29,111.17 L 431.45,114.61 L 437.51,121.25 L 440.48,124.52 L 446.09,130.71 L 448.82,133.74 L 453.85,139.35 L 455.07,140.71 L 457.37,143.30 L 458.50,144.57 L 460.62,146.96 L 461.65,148.13 L 463.57,150.32 L 464.50,151.38 L 466.20,153.34 L 467.02,154.29 L 468.49,156.00 L 469.19,156.82 L 470.41,158.27 L 470.99,158.96 L 471.95,160.13 L 472.39,160.67 L 473.07,161.55 L 473.38,161.94 L 473.76,162.50 L 474.00,162.97 L 474.00,163.19 L 473.34,163.71 L 471.75,164.37 L 471.60,164.41 L 471.03,164.49 L 470.70,164.52 L 469.83,164.59 L 468.89,164.65 L 466.28,164.73 L 464.89,164.77 L 461.63,164.82 L 459.96,164.84 L 456.41,164.84 L 454.63,164.84 L 451.14,164.80 L 449.43,164.77 L 446.35,164.69 L 444.89,164.65 L 442.57,164.53 L 442.05,164.50 L 441.22,164.42 L 440.84,164.39 M 609.47,160.63 L 609.19,160.33 L 608.40,159.46 L 607.97,158.99 L 606.93,157.80 L 606.39,157.18 L 605.15,155.73 L 604.50,154.98 L 603.10,153.33 L 601.67,151.63 L 598.50,147.81 L 593.65,141.88 L 592.36,140.29 L 589.93,137.29 L 588.74,135.82 L 586.49,133.05 L 585.39,131.69 L 583.32,129.14 L 582.31,127.90 L 580.41,125.56 L 578.55,123.28 L 575.29,119.31 L 573.74,117.41 L 571.05,114.16 L 569.77,112.61 L 567.57,109.98 L 566.52,108.74 L 564.75,106.66 L 563.90,105.68 L 562.48,104.06 L 560.66,102.06 L 560.07,101.43 L 558.58,99.64 L 557.80,98.67 L 556.08,96.42 L 551.03,89.25 L 550.30,88.12 L 548.86,86.05 L 548.16,85.06 L 546.91,83.42 L 546.33,82.68 L 545.40,81.65 L 544.54,81.00 L 544.35,81.00 L 544.08,81.41 L 543.96,81.69 L 543.86,82.70 L 543.83,83.29 L 543.88,84.96 L 544.15,88.25 L 544.20,88.75 L 544.30,90.41 L 544.34,91.34 L 544.44,93.77 L 544.48,95.07 L 544.57,98.17 L 544.61,99.79 L 544.68,103.44 L 544.72,105.32 L 544.78,109.40 L 544.81,111.49 L 544.86,115.90 L 544.94,129.78 L 545.00,164.05 L 530.25,163.78 L 515.50,163.50 L 515.50,100.00 L 515.50,36.50 L 528.67,36.22 L 541.84,35.94 L 558.63,55.72 L 560.67,58.12 L 564.43,62.56 L 566.27,64.72 L 569.66,68.72 L 571.31,70.67 L 574.34,74.25 L 575.82,76.00 L 578.53,79.21 L 579.85,80.77 L 582.26,83.63 L 583.43,85.02 L 585.57,87.56 L 586.60,88.80 L 588.49,91.06 L 589.41,92.16 L 591.08,94.17 L 591.88,95.14 L 593.36,96.93 L 594.07,97.80 L 595.37,99.40 L 596.64,100.96 L 598.78,103.64 L 599.80,104.93 L 601.60,107.26 L 604.15,110.65 L 605.09,111.91 L 606.89,114.41 L 607.76,115.64 L 609.30,117.88 L 610.03,118.94 L 611.14,120.67 L 611.39,121.06 L 611.76,121.69 L 612.14,122.40 L 612.46,123.12 L 613.41,124.24 L 614.79,125.00 L 615.08,125.00 L 615.48,124.81 L 615.66,124.67 L 615.84,124.13 L 615.90,123.81 L 615.88,122.83 L 615.64,120.75 L 615.60,120.46 L 615.50,119.08 L 615.45,118.27 L 615.35,115.94 L 615.29,114.66 L 615.18,111.51 L 615.12,109.84 L 615.01,105.97 L 614.95,103.96 L 614.84,99.51 L 614.78,97.23 L 614.67,92.31 L 614.61,89.81 L 614.51,84.55 L 614.37,76.41 L 614.33,74.30 L 614.27,70.40 L 614.25,68.50 L 614.20,65.00 L 614.17,63.30 L 614.14,60.18 L 614.12,58.66 L 614.09,55.90 L 614.08,54.56 L 614.06,52.14 L 614.06,50.97 L 614.06,48.86 L 614.06,47.84 L 614.07,46.03 L 614.07,45.16 L 614.10,43.63 L 614.13,42.16 L 614.22,39.96 L 614.27,38.97 L 614.43,37.60 L 614.51,37.01 L 614.72,36.31 L 615.11,35.83 L 615.21,35.80 L 615.66,35.74 L 615.93,35.71 L 616.70,35.67 L 617.53,35.64 L 619.98,35.61 L 621.31,35.61 L 624.50,35.65 L 629.75,35.79 L 643.00,36.24 L 643.00,100.01 L 643.00,103.59 L 643.00,110.16 L 643.00,113.35 L 642.99,119.19 L 642.99,122.02 L 642.98,127.16 L 642.97,129.65 L 642.95,134.14 L 642.94,136.31 L 642.92,140.19 L 642.91,142.07 L 642.87,145.39 L 642.86,146.98 L 642.82,149.79 L 642.79,151.13 L 642.74,153.46 L 642.71,154.57 L 642.65,156.47 L 642.62,157.36 L 642.54,158.87 L 642.50,159.58 L 642.41,160.75 L 642.37,161.29 L 642.26,162.15 L 642.16,162.95 L 641.89,163.82 L 641.42,164.39 L 641.31,164.43 L 640.83,164.51 L 640.56,164.55 L 639.77,164.63 L 638.92,164.70 L 636.46,164.82 L 635.13,164.88 L 631.95,164.95 L 626.75,165.00 L 613.66,165.00 L 609.47,160.63 M 37.00,163.07 L 37.00,162.98 L 37.19,162.52 L 37.32,162.24 L 37.75,161.40 L 38.00,160.93 L 38.67,159.74 L 39.04,159.10 L 39.94,157.56 L 40.41,156.75 L 41.53,154.89 L 42.11,153.92 L 43.43,151.74 L 44.12,150.62 L 45.64,148.15 L 46.42,146.88 L 48.13,144.13 L 49.01,142.72 L 50.90,139.71 L 51.86,138.17 L 53.92,134.90 L 54.96,133.24 L 57.18,129.74 L 58.31,127.97 L 60.67,124.25 L 63.07,120.48 L 68.28,112.35 L 76.63,99.40 L 77.35,98.29 L 78.95,95.75 L 79.76,94.46 L 81.40,91.80 L 82.20,90.49 L 83.68,88.03 L 85.50,84.90 L 86.49,83.14 L 88.62,79.50 L 89.13,78.65 L 90.02,77.17 L 91.05,75.50 L 91.58,74.67 L 92.62,72.94 L 92.85,72.53 L 93.25,71.82 L 93.67,71.00 L 93.85,70.63 L 94.35,69.64 L 94.63,69.12 L 95.33,67.86 L 96.06,66.54 L 97.98,63.27 L 98.99,61.56 L 101.28,57.79 L 102.44,55.87 L 104.87,51.97 L 106.09,50.04 L 108.43,46.38 L 109.56,44.62 L 111.58,41.57 L 112.05,40.86 L 112.90,39.63 L 113.30,39.04 L 113.99,38.09 L 114.31,37.65 L 114.80,37.03 L 115.30,36.50 L 115.67,36.25 L 116.86,35.83 L 117.52,35.63 L 119.16,35.34 L 120.89,35.08 L 125.00,34.95 L 127.06,34.95 L 130.84,35.34 L 131.71,35.47 L 133.15,35.83 L 134.71,36.51 L 134.96,36.69 L 135.56,37.31 L 135.86,37.67 L 136.54,38.61 L 137.24,39.62 L 138.81,42.41 L 139.60,43.90 L 141.21,47.39 L 143.47,53.00 L 143.64,53.48 L 144.13,54.71 L 144.38,55.36 L 144.97,56.79 L 146.79,61.00 L 146.93,61.32 L 147.35,62.28 L 147.57,62.80 L 148.12,64.11 L 148.41,64.81 L 149.07,66.41 L 149.41,67.25 L 150.16,69.09 L 150.93,70.99 L 152.64,75.24 L 153.51,77.41 L 155.28,81.88 L 156.16,84.10 L 157.81,88.31 L 158.60,90.34 L 159.95,93.84 L 160.27,94.65 L 160.80,96.05 L 161.05,96.71 L 161.44,97.78 L 161.62,98.26 L 161.86,98.93 L 162.00,99.43 L 162.00,99.50 L 162.19,100.05 L 162.32,100.38 L 162.72,101.35 L 162.94,101.87 L 163.50,103.13 L 164.45,105.22 L 164.62,105.59 L 165.07,106.62 L 165.32,107.18 L 165.92,108.57 L 166.23,109.31 L 166.94,111.00 L 167.31,111.87 L 168.11,113.80 L 168.93,115.77 L 170.73,120.18 L 173.49,127.00 L 174.39,129.27 L 176.15,133.64 L 177.01,135.77 L 178.55,139.53 L 178.91,140.42 L 179.56,142.00 L 179.87,142.75 L 180.40,144.03 L 180.65,144.63 L 181.04,145.56 L 181.45,146.50 L 182.07,147.83 L 183.14,150.21 L 183.65,151.36 L 184.54,153.37 L 184.95,154.34 L 185.65,156.01 L 185.98,156.81 L 186.51,158.17 L 186.75,158.81 L 187.11,159.88 L 187.28,160.38 L 187.48,161.18 L 187.57,161.55 L 187.63,162.11 L 187.56,162.70 L 187.54,162.75 L 187.29,162.87 L 187.12,162.92 L 186.60,163.03 L 186.02,163.13 L 184.14,163.31 L 183.09,163.40 L 180.38,163.55 L 178.94,163.63 L 175.55,163.75 L 173.78,163.81 L 169.85,163.91 L 167.83,163.96 L 163.50,164.03 L 159.09,164.09 L 149.70,164.12 L 144.99,164.13 L 135.86,164.04 L 133.64,164.02 L 129.46,163.94 L 127.42,163.90 L 123.69,163.79 L 121.90,163.73 L 118.77,163.60 L 117.29,163.52 L 114.90,163.36 L 113.81,163.27 L 112.31,163.08 L 112.00,163.02 L 111.56,162.92 L 111.21,162.75 L 111.06,162.58 L 110.65,161.87 L 110.42,161.46 L 109.89,160.39 L 108.18,156.50 L 107.91,155.81 L 107.16,154.02 L 106.77,153.08 L 105.86,150.98 L 103.05,144.73 L 102.62,143.80 L 101.88,142.03 L 101.53,141.17 L 101.01,139.67 L 100.78,138.96 L 100.52,137.90 L 100.51,136.98 L 100.56,136.91 L 101.04,136.77 L 101.35,136.70 L 102.33,136.58 L 102.87,136.52 L 104.32,136.41 L 105.09,136.36 L 106.96,136.27 L 107.95,136.23 L 110.22,136.15 L 111.40,136.12 L 114.04,136.07 L 115.40,136.05 L 118.37,136.02 L 123.17,136.00 L 124.45,136.00 L 126.81,136.00 L 127.95,136.00 L 130.03,135.99 L 132.04,135.99 L 135.29,135.96 L 136.80,135.94 L 139.15,135.88 L 140.22,135.84 L 141.81,135.74 L 142.52,135.68 L 143.47,135.52 L 143.88,135.44 L 144.34,135.21 L 144.52,135.09 L 144.61,134.79 L 144.48,134.25 L 144.22,133.64 L 143.62,132.15 L 143.30,131.36 L 142.57,129.53 L 142.20,128.58 L 141.38,126.48 L 140.96,125.40 L 140.07,123.07 L 139.16,120.69 L 137.19,115.48 L 136.19,112.84 L 134.17,107.39 L 133.17,104.68 L 131.24,99.43 L 130.31,96.86 L 128.64,92.21 L 128.24,91.10 L 127.53,89.07 L 127.18,88.09 L 126.58,86.36 L 126.30,85.53 L 125.83,84.14 L 125.31,82.50 L 125.01,81.50 L 124.42,79.80 L 124.12,79.01 L 123.56,77.74 L 123.29,77.16 L 122.76,76.32 L 122.50,75.95 L 122.01,75.53 L 121.77,75.38 L 121.32,75.40 L 121.10,75.46 L 120.69,75.91 L 120.50,76.19 L 120.14,77.08 L 119.67,78.91 L 119.60,79.23 L 119.39,79.96 L 119.27,80.35 L 118.90,81.29 L 118.70,81.80 L 118.11,83.06 L 117.78,83.74 L 116.92,85.43 L 116.45,86.35 L 115.25,88.59 L 114.61,89.80 L 113.01,92.71 L 112.16,94.26 L 110.11,97.95 L 109.57,98.93 L 108.39,101.05 L 106.47,104.50 L 106.27,104.84 L 105.77,105.73 L 105.50,106.20 L 104.86,107.31 L 104.18,108.47 L 102.54,111.26 L 97.02,120.50 L 94.85,124.07 L 90.64,131.12 L 88.57,134.58 L 84.78,141.01 L 83.88,142.55 L 82.19,145.44 L 81.38,146.84 L 79.91,149.39 L 79.20,150.62 L 77.98,152.78 L 76.47,155.50 L 75.86,156.62 L 74.87,158.44 L 74.40,159.28 L 73.54,160.61 L 73.10,161.22 L 72.16,162.13 L 71.66,162.54 L 70.43,163.11 L 69.76,163.36 L 68.05,163.67 L 67.11,163.80 L 64.69,163.93 L 63.38,163.98 L 60.06,164.00 L 59.16,164.00 L 57.17,164.00 L 53.85,164.00 L 51.42,164.00 L 47.12,163.93 L 46.11,163.91 L 44.25,163.85 L 43.36,163.81 L 41.79,163.74 L 41.04,163.69 L 39.77,163.60 L 39.18,163.55 L 38.27,163.44 L 37.86,163.39 L 37.33,163.26 L 37.11,163.20 M 219.97,162.78 L 219.96,162.26 L 219.93,160.98 L 219.92,160.29 L 219.90,158.69 L 219.89,157.85 L 219.87,155.95 L 219.85,154.97 L 219.83,152.79 L 219.81,150.56 L 219.77,145.38 L 219.76,142.68 L 219.72,136.72 L 219.70,133.65 L 219.67,127.10 L 219.66,123.76 L 219.63,116.80 L 219.61,109.78 L 219.58,95.31 L 219.57,91.73 L 219.56,84.68 L 219.56,81.20 L 219.56,74.50 L 219.56,71.22 L 219.56,65.06 L 219.57,62.07 L 219.58,56.64 L 219.58,54.03 L 219.60,49.51 L 219.61,48.44 L 219.62,46.52 L 219.63,45.60 L 219.64,43.96 L 219.65,43.19 L 219.66,41.87 L 219.67,41.26 L 219.69,40.28 L 219.70,39.84 L 219.72,39.23 L 219.75,38.75 L 220.25,36.00 L 255.54,36.00 L 257.94,36.00 L 262.38,36.01 L 264.54,36.02 L 268.54,36.04 L 270.49,36.05 L 274.08,36.10 L 275.83,36.12 L 279.04,36.19 L 280.60,36.22 L 283.46,36.31 L 284.86,36.36 L 287.41,36.47 L 288.65,36.54 L 290.92,36.68 L 292.03,36.76 L 294.06,36.95 L 296.03,37.14 L 299.36,37.64 L 300.95,37.91 L 303.73,38.58 L 305.07,38.95 L 307.54,39.83 L 311.18,41.40 L 313.48,42.49 L 317.81,45.37 L 319.93,46.91 L 323.82,50.59 L 325.70,52.51 L 329.01,56.86 L 333.18,64.00 L 334.05,65.81 L 335.44,69.67 L 336.08,71.63 L 337.02,75.72 L 337.42,77.79 L 337.90,82.03 L 338.08,84.16 L 338.09,88.48 L 338.04,90.63 L 337.60,94.92 L 337.33,97.06 L 336.44,101.24 L 335.93,103.31 L 334.59,107.31 L 332.07,112.99 L 331.70,113.70 L 330.67,115.27 L 330.12,116.08 L 328.79,117.78 L 327.40,119.51 L 324.06,123.03 L 322.35,124.74 L 318.86,127.73 L 318.00,128.42 L 316.39,129.57 L 314.17,130.91 L 313.02,131.50 L 311.22,132.73 L 310.85,133.01 L 310.33,133.52 L 310.00,134.09 L 310.00,134.20 L 310.30,134.71 L 310.50,135.02 L 311.15,135.88 L 311.51,136.35 L 312.44,137.49 L 312.93,138.09 L 314.07,139.42 L 315.25,140.78 L 317.96,143.77 L 322.00,148.00 L 322.59,148.59 L 323.91,149.97 L 324.59,150.69 L 326.02,152.24 L 327.46,153.81 L 330.27,157.01 L 330.93,157.78 L 332.13,159.20 L 332.70,159.88 L 333.63,161.04 L 334.06,161.58 L 334.63,162.37 L 335.00,163.04 L 335.00,163.11 L 334.69,163.24 L 334.48,163.31 L 333.78,163.43 L 333.38,163.49 L 332.31,163.60 L 331.73,163.65 L 330.31,163.74 L 329.57,163.78 L 327.84,163.85 L 326.94,163.88 L 324.92,163.93 L 317.90,164.00 L 300.80,164.00 L 297.74,160.75 L 297.32,160.30 L 296.12,158.90 L 295.47,158.13 L 293.96,156.25 L 289.16,150.00 L 288.40,148.97 L 286.93,147.03 L 286.21,146.10 L 284.94,144.49 L 284.34,143.74 L 283.41,142.64 L 282.56,141.77 L 282.49,141.71 L 282.01,141.62 L 281.72,141.57 L 280.83,141.48 L 280.34,141.43 L 279.10,141.35 L 278.44,141.31 L 276.89,141.24 L 275.28,141.17 L 271.34,141.08 L 264.75,141.02 L 263.16,141.01 L 260.38,141.03 L 259.05,141.03 L 256.77,141.07 L 255.68,141.09 L 253.86,141.15 L 253.00,141.18 L 251.60,141.27 L 250.94,141.32 L 249.93,141.44 L 249.47,141.50 L 248.80,141.66 L 248.51,141.74 L 248.16,141.92 L 247.95,142.25 L 247.94,142.42 L 247.92,143.52 L 247.90,144.18 L 247.86,146.07 L 247.84,147.09 L 247.78,149.52 L 247.70,153.50 L 247.50,163.50 L 233.75,163.78 L 232.42,163.81 L 230.11,163.84 L 229.00,163.85 L 227.12,163.85 L 226.22,163.85 L 224.73,163.82 L 224.02,163.80 L 222.88,163.73 L 222.35,163.69 L 221.54,163.59 L 221.17,163.53 L 220.64,163.38 L 220.18,163.22 M 294.00,111.50 L 294.53,111.23 L 295.67,110.47 L 296.26,110.06 L 297.48,109.07 L 298.72,108.02 L 301.22,105.45 L 302.44,104.12 L 304.63,101.31 L 307.11,97.26 L 307.86,95.72 L 308.88,92.81 L 309.31,91.38 L 309.69,88.60 L 309.80,87.22 L 309.57,84.42 L 308.53,80.08 L 308.01,78.52 L 306.73,75.79 L 306.04,74.48 L 304.38,72.18 L 303.49,71.08 L 301.38,69.15 L 297.64,66.56 L 296.42,65.85 L 294.32,64.92 L 293.75,64.72 L 292.42,64.41 L 291.70,64.27 L 289.92,64.07 L 288.95,63.99 L 286.48,63.88 L 285.15,63.84 L 281.78,63.80 L 280.88,63.79 L 278.85,63.79 L 277.81,63.79 L 275.48,63.80 L 274.28,63.81 L 271.63,63.82 L 267.25,63.85 L 248.00,64.00 L 248.00,88.33 L 248.00,91.68 L 248.05,97.83 L 248.06,99.30 L 248.10,102.02 L 248.12,103.33 L 248.17,105.69 L 248.20,106.82 L 248.26,108.76 L 248.29,109.67 L 248.36,111.11 L 248.40,111.76 L 248.47,112.64 L 248.59,113.26 L 248.63,113.30 L 249.14,113.37 L 249.46,113.40 L 250.47,113.46 L 251.04,113.48 L 252.51,113.52 L 253.30,113.53 L 255.16,113.55 L 256.14,113.56 L 258.33,113.57 L 259.47,113.57 L 261.94,113.55 L 270.12,113.44 L 272.14,113.40 L 275.70,113.31 L 277.40,113.26 L 280.35,113.16 L 281.76,113.11 L 284.18,112.99 L 285.33,112.93 L 287.27,112.79 L 288.19,112.71 L 289.71,112.54 L 290.42,112.46 L 291.59,112.25 L 292.13,112.15 L 292.99,111.91 L 293.38,111.78 M 678.24,100.26 L 678.50,36.50 L 732.00,36.50 L 785.50,36.50 L 785.50,50.00 L 785.50,63.50 L 746.50,64.00 L 707.50,64.50 L 707.38,97.00 L 707.37,101.47 L 707.37,109.87 L 707.38,111.90 L 707.40,115.69 L 707.41,117.54 L 707.44,120.90 L 707.46,122.52 L 707.50,125.36 L 707.52,126.70 L 707.57,128.92 L 707.59,129.94 L 707.65,131.42 L 707.74,132.74 L 708.22,135.98 L 746.86,136.24 L 785.50,136.50 L 785.50,150.00 L 785.50,163.50 L 731.74,163.76 L 677.99,164.02 L 678.24,100.26 M 860.69,163.36 L 860.67,163.34 L 860.62,163.03 L 860.60,162.84 L 860.55,162.21 L 860.53,161.86 L 860.49,160.93 L 860.47,160.42 L 860.42,159.20 L 860.38,157.91 L 860.31,154.52 L 860.27,152.71 L 860.20,148.39 L 860.17,146.12 L 860.12,141.00 L 860.09,138.35 L 860.05,132.56 L 860.04,129.59 L 860.01,123.28 L 860.00,113.36 L 860.00,64.04 L 841.25,63.77 L 822.50,63.50 L 822.21,52.00 L 822.17,50.42 L 822.14,47.36 L 822.13,45.87 L 822.17,43.22 L 822.19,41.97 L 822.28,40.03 L 822.31,39.60 L 822.37,38.94 L 822.48,38.25 L 823.04,36.00 L 875.27,36.02 L 878.86,36.02 L 885.79,36.03 L 889.20,36.05 L 895.65,36.09 L 898.80,36.11 L 904.64,36.16 L 907.47,36.19 L 912.53,36.26 L 914.96,36.30 L 919.11,36.39 L 920.09,36.41 L 921.84,36.46 L 922.69,36.48 L 924.16,36.53 L 924.86,36.55 L 926.04,36.60 L 926.59,36.63 L 927.46,36.68 L 927.85,36.71 L 928.38,36.76 L 928.78,36.84 L 929.02,37.00 L 929.37,37.89 L 929.45,38.17 L 929.57,38.91 L 929.63,39.31 L 929.72,40.31 L 929.76,40.85 L 929.81,42.15 L 929.83,42.83 L 929.85,44.44 L 929.85,45.29 L 929.84,47.24 L 929.78,50.58 L 929.50,63.50 L 909.26,63.77 L 889.02,64.04 L 888.76,113.77 L 888.50,163.50 L 874.94,163.78 L 873.08,163.82 L 869.63,163.83 L 867.97,163.83 L 865.17,163.77 L 864.52,163.75 L 863.40,163.70 L 862.88,163.67 L 862.03,163.61 L 861.65,163.57 L 861.11,163.49 L 860.88,163.45 M 721.60,113.17 L 721.54,113.07 L 721.44,112.64 L 721.39,112.39 L 721.30,111.69 L 721.23,110.94 L 721.13,108.78 L 721.10,107.63 L 721.08,104.92 L 721.09,103.53 L 721.14,100.59 L 721.17,99.13 L 721.29,96.28 L 721.35,94.90 L 721.52,92.46 L 721.62,91.33 L 721.83,89.63 L 721.89,89.27 L 722.01,88.73 L 722.20,88.26 L 722.30,88.14 L 722.73,87.94 L 722.99,87.84 L 723.78,87.67 L 724.23,87.59 L 725.42,87.45 L 726.07,87.38 L 727.71,87.28 L 728.59,87.23 L 730.71,87.15 L 731.83,87.12 L 734.48,87.06 L 735.88,87.04 L 739.10,87.02 L 744.62,87.00 L 766.00,87.00 L 766.00,99.88 L 766.00,101.45 L 765.99,104.03 L 765.99,105.24 L 765.96,107.19 L 765.94,108.09 L 765.86,109.50 L 765.82,110.14 L 765.69,111.10 L 765.62,111.53 L 765.42,112.15 L 765.31,112.42 L 765.02,112.78 L 763.75,113.37 L 763.53,113.43 L 762.71,113.53 L 762.25,113.58 L 760.97,113.67 L 760.28,113.71 L 758.63,113.78 L 757.76,113.81 L 755.79,113.86 L 753.76,113.91 L 749.05,113.96 L 746.64,113.98 L 741.60,113.97 L 739.09,113.96 L 734.28,113.89 L 731.96,113.85 L 727.95,113.73 L 727.02,113.69 L 725.41,113.62 L 724.66,113.58 L 723.44,113.49 L 722.89,113.44 L 722.14,113.34 L 721.82,113.28 Z" fill="rgba(250,249,251,1)"/>
</g>
</svg>