<svg xmlns="http://www.w3.org/2000/svg" width="1008" height="270" viewBox="0 0 1008 270">
<g>
<path d="M 652.34,238.97 L 650.75,238.65 L 647.80,237.72 L 646.37,237.21 L 643.78,235.93 L 642.52,235.24 L 640.29,233.61 L 639.23,232.76 L 637.38,230.81 L 636.51,229.80 L 635.07,227.55 L 634.40,226.39 L 633.38,223.87 L 632.93,222.58 L 632.35,219.80 L 632.00,215.38 L 632.00,214.13 L 632.26,211.73 L 632.44,210.54 L 633.04,208.26 L 633.38,207.13 L 634.31,205.00 L 634.81,203.95 L 636.05,201.99 L 636.71,201.03 L 638.25,199.24 L 639.05,198.38 L 640.87,196.80 L 641.82,196.05 L 643.91,194.70 L 647.34,192.95 L 648.56,192.42 L 651.34,191.72 L 652.77,191.43 L 655.81,191.16 L 657.35,191.07 L 660.48,191.20 L 662.03,191.31 L 665.04,191.80 L 666.52,192.08 L 669.22,192.89 L 670.52,193.33 L 672.74,194.42 L 673.77,195.00 L 675.30,196.35 L 676.61,198.60 L 676.82,199.43 L 676.72,200.88 L 675.79,202.63 L 675.47,202.96 L 674.85,203.34 L 674.52,203.49 L 673.69,203.50 L 673.22,203.46 L 671.92,203.08 L 669.13,202.05 L 667.37,201.36 L 663.93,200.51 L 662.23,200.17 L 658.96,200.00 L 657.36,199.99 L 654.37,200.45 L 652.92,200.75 L 650.29,201.79 L 649.04,202.38 L 646.88,203.96 L 645.87,204.82 L 644.26,206.89 L 643.54,207.99 L 642.59,210.52 L 642.00,214.78 L 642.00,215.76 L 642.21,217.60 L 642.36,218.49 L 642.85,220.16 L 643.14,220.98 L 643.91,222.48 L 644.33,223.21 L 645.39,224.53 L 645.95,225.17 L 647.27,226.32 L 647.97,226.88 L 649.56,227.85 L 650.40,228.31 L 652.26,229.10 L 655.35,230.07 L 656.31,230.31 L 657.85,230.58 L 658.59,230.69 L 659.94,230.67 L 660.61,230.63 L 662.06,230.30 L 664.69,229.43 L 666.02,228.94 L 668.45,227.90 L 669.00,227.66 L 669.88,227.22 L 670.74,226.72 L 671.16,226.39 L 672.39,226.19 L 673.04,226.15 L 674.43,226.44 L 675.11,226.63 L 676.29,227.31 L 677.42,228.65 L 677.52,228.90 L 677.53,229.51 L 677.50,229.83 L 677.27,230.53 L 675.78,232.79 L 675.20,233.42 L 673.78,234.57 L 673.03,235.13 L 671.32,236.12 L 670.43,236.59 L 668.50,237.40 L 667.51,237.78 L 665.41,238.39 L 663.29,238.95 L 658.83,239.41 L 657.72,239.46 L 655.53,239.39 L 654.44,239.31 M 310.76,238.06 L 308.74,237.41 L 305.16,235.53 L 303.45,234.49 L 300.54,231.88 L 299.17,230.48 L 296.95,227.16 L 294.43,221.43 L 294.22,220.75 L 293.88,219.61 L 293.72,219.06 L 293.48,218.12 L 293.26,217.20 L 293.15,215.64 L 293.15,214.84 L 293.45,213.01 L 293.55,212.51 L 293.84,211.34 L 294.38,209.26 L 294.85,207.48 L 296.24,203.81 L 296.60,202.95 L 297.31,201.46 L 298.30,199.79 L 299.02,198.81 L 300.78,197.08 L 301.71,196.25 L 303.81,194.84 L 304.90,194.18 L 307.28,193.10 L 308.49,192.61 L 311.04,191.89 L 312.33,191.58 L 314.99,191.24 L 316.32,191.12 L 318.99,191.17 L 320.31,191.26 L 322.91,191.73 L 326.64,192.94 L 327.82,193.45 L 329.98,194.64 L 331.03,195.26 L 332.91,196.66 L 333.82,197.38 L 335.44,198.96 L 336.21,199.76 L 337.55,201.49 L 338.18,202.38 L 339.24,204.23 L 339.74,205.17 L 340.52,207.12 L 340.88,208.11 L 341.38,210.13 L 341.59,211.15 L 341.81,213.22 L 341.89,214.26 L 341.82,216.34 L 341.75,217.38 L 341.40,219.45 L 341.18,220.49 L 340.54,222.52 L 340.19,223.53 L 339.25,225.50 L 338.75,226.47 L 337.53,228.34 L 336.88,229.27 L 335.36,231.02 L 334.56,231.88 L 332.74,233.49 L 329.68,235.70 L 329.13,236.05 L 327.80,236.67 L 327.11,236.97 L 325.56,237.48 L 323.97,237.96 L 320.44,238.54 L 318.67,238.76 L 315.21,238.77 L 314.38,238.73 L 312.83,238.54 L 312.09,238.43 M 324.98,228.25 L 325.96,227.76 L 327.67,226.52 L 328.48,225.86 L 329.84,224.34 L 330.47,223.55 L 331.45,221.82 L 331.90,220.92 L 332.50,219.02 L 332.75,218.06 L 332.96,216.06 L 333.00,215.05 L 332.79,213.01 L 332.63,211.99 L 331.99,209.97 L 330.51,207.02 L 329.74,205.79 L 328.27,203.98 L 327.53,203.18 L 325.89,202.09 L 325.02,201.63 L 322.87,201.09 L 318.70,200.69 L 317.45,200.64 L 315.14,200.80 L 314.02,200.92 L 312.00,201.40 L 311.03,201.67 L 309.31,202.47 L 308.49,202.90 L 307.08,204.00 L 306.41,204.59 L 305.31,205.98 L 304.81,206.72 L 304.04,208.40 L 303.70,209.28 L 303.26,211.24 L 303.00,214.50 L 303.00,216.04 L 303.52,218.81 L 303.87,220.15 L 305.08,222.50 L 305.78,223.62 L 307.67,225.54 L 311.27,227.91 L 312.56,228.54 L 314.94,229.36 L 316.11,229.69 L 318.34,229.90 L 319.44,229.93 L 321.63,229.53 L 322.72,229.25 M 382.71,237.34 L 381.61,236.96 L 379.51,235.89 L 378.48,235.31 L 376.55,233.89 L 375.61,233.14 L 373.88,231.42 L 373.04,230.53 L 371.56,228.56 L 370.85,227.55 L 369.65,225.40 L 369.09,224.31 L 368.21,222.03 L 367.82,220.88 L 367.31,218.53 L 367.00,214.99 L 367.00,214.41 L 367.15,213.06 L 367.25,212.36 L 367.57,210.84 L 367.93,209.30 L 369.04,206.03 L 369.64,204.42 L 371.04,201.50 L 371.40,200.83 L 372.13,199.66 L 373.22,198.25 L 374.36,197.03 L 376.78,195.14 L 378.03,194.28 L 380.82,193.06 L 382.28,192.52 L 385.63,191.90 L 391.50,191.56 L 393.20,191.57 L 396.27,191.83 L 397.75,191.99 L 400.33,192.52 L 401.56,192.81 L 403.60,193.57 L 404.55,193.98 L 405.99,194.92 L 406.63,195.42 L 407.41,196.51 L 407.72,197.07 L 407.79,198.25 L 407.73,198.86 L 407.02,200.10 L 405.03,201.98 L 404.34,202.47 L 403.33,203.10 L 402.86,203.36 L 402.07,203.54 L 401.67,203.58 L 400.80,203.34 L 399.08,202.54 L 398.64,202.31 L 397.40,201.91 L 396.74,201.73 L 395.15,201.43 L 389.70,201.00 L 388.34,201.00 L 386.31,201.09 L 385.38,201.16 L 383.98,201.45 L 383.32,201.63 L 382.24,202.20 L 380.64,203.46 L 380.01,204.05 L 378.94,205.30 L 378.44,205.93 L 377.63,207.28 L 377.26,207.97 L 376.71,209.41 L 376.47,210.14 L 376.18,211.66 L 376.07,212.43 L 376.05,214.02 L 376.07,214.82 L 376.32,216.47 L 376.47,217.30 L 376.98,219.00 L 378.04,221.59 L 378.65,222.85 L 380.23,224.88 L 381.08,225.81 L 383.16,227.19 L 384.27,227.80 L 386.89,228.55 L 391.47,229.00 L 393.03,229.00 L 395.44,228.73 L 396.53,228.55 L 398.08,227.87 L 398.75,227.47 L 399.55,226.31 L 400.00,223.96 L 400.00,223.26 L 399.90,222.30 L 399.82,221.89 L 399.38,221.42 L 399.09,221.22 L 398.06,221.06 L 395.58,221.00 L 394.81,221.00 L 393.47,220.96 L 392.84,220.93 L 391.78,220.83 L 390.78,220.71 L 389.46,220.21 L 388.90,219.90 L 388.31,218.95 L 388.00,216.89 L 388.00,214.00 L 398.03,214.00 L 408.07,214.00 L 407.78,224.59 L 407.50,235.19 L 403.50,236.58 L 401.84,237.16 L 398.21,237.93 L 396.37,238.26 L 392.64,238.52 L 390.79,238.59 L 387.30,238.33 L 385.62,238.13 M 479.50,237.43 L 478.65,236.98 L 476.89,235.82 L 476.03,235.22 L 474.47,233.92 L 473.75,233.29 L 472.69,232.13 L 472.00,230.83 L 472.00,230.64 L 472.19,230.14 L 472.31,229.87 L 472.71,229.27 L 473.14,228.65 L 474.38,227.34 L 475.02,226.71 L 476.34,225.70 L 476.66,225.49 L 477.23,225.20 L 477.93,225.02 L 478.36,225.03 L 479.77,225.61 L 482.00,227.00 L 482.71,227.55 L 484.32,228.31 L 485.13,228.63 L 486.79,228.90 L 487.60,228.97 L 489.07,228.74 L 490.80,227.80 L 491.13,227.47 L 491.65,226.13 L 492.00,223.79 L 492.00,223.17 L 491.81,222.23 L 491.66,221.78 L 491.01,221.02 L 490.61,220.65 L 489.28,219.86 L 486.26,218.44 L 484.47,217.64 L 481.65,216.12 L 480.36,215.36 L 478.41,213.77 L 477.53,212.96 L 476.28,211.15 L 475.01,208.03 L 474.71,206.94 L 474.50,204.83 L 474.46,203.79 L 474.71,201.84 L 474.89,200.88 L 475.58,199.11 L 475.98,198.26 L 477.06,196.73 L 477.65,196.01 L 479.09,194.77 L 479.85,194.18 L 481.62,193.27 L 482.53,192.86 L 484.58,192.33 L 487.94,192.00 L 489.24,192.00 L 491.79,192.37 L 493.03,192.61 L 495.26,193.37 L 496.31,193.79 L 497.94,194.83 L 499.39,196.58 L 499.45,196.74 L 499.35,197.30 L 499.26,197.62 L 498.89,198.40 L 497.03,201.13 L 496.34,201.95 L 495.39,203.01 L 494.96,203.45 L 494.32,203.81 L 494.01,203.90 L 493.40,203.65 L 492.20,202.68 L 491.54,202.08 L 489.85,201.40 L 486.84,201.18 L 486.11,201.25 L 485.08,201.44 L 484.63,201.56 L 484.07,201.94 L 483.83,202.16 L 483.61,202.85 L 483.50,204.39 L 483.50,205.00 L 483.69,205.97 L 483.82,206.43 L 484.41,207.23 L 484.77,207.62 L 485.93,208.44 L 488.50,209.90 L 489.52,210.44 L 491.26,211.37 L 492.08,211.82 L 493.47,212.61 L 494.13,213.00 L 495.22,213.70 L 495.74,214.05 L 496.60,214.70 L 497.41,215.35 L 498.57,216.72 L 500.08,219.21 L 500.70,220.41 L 501.46,222.46 L 501.76,223.45 L 501.87,225.30 L 501.84,226.23 L 501.29,228.14 L 499.73,231.40 L 499.24,232.26 L 498.02,233.78 L 497.37,234.50 L 495.89,235.75 L 495.12,236.33 L 493.44,237.28 L 492.58,237.72 L 490.75,238.35 L 489.83,238.62 L 487.92,238.92 L 486.97,239.03 L 485.05,238.98 L 484.09,238.91 L 482.21,238.49 L 481.28,238.23 M 242.70,237.36 L 242.65,237.31 L 242.56,236.78 L 242.51,236.44 L 242.43,235.37 L 242.38,234.77 L 242.31,233.23 L 242.27,232.41 L 242.20,230.46 L 242.17,229.44 L 242.12,227.14 L 242.09,225.95 L 242.05,223.37 L 242.00,214.83 L 242.00,193.00 L 246.00,193.00 L 250.00,193.00 L 250.01,207.25 L 250.01,209.21 L 250.06,213.08 L 250.10,214.97 L 250.20,218.42 L 250.26,220.05 L 250.40,222.67 L 250.44,223.26 L 250.52,224.21 L 250.64,225.25 L 251.26,229.00 L 259.69,229.00 L 268.11,229.00 L 267.81,233.25 L 267.50,237.50 L 255.45,237.78 L 253.79,237.82 L 250.71,237.83 L 249.23,237.83 L 246.73,237.77 L 245.57,237.73 L 243.92,237.61 L 243.57,237.58 L 243.08,237.50 L 242.88,237.46 M 436.71,237.38 L 436.66,237.33 L 436.56,236.90 L 436.51,236.63 L 436.42,235.82 L 436.38,235.38 L 436.30,234.24 L 436.27,233.63 L 436.21,232.20 L 436.15,230.72 L 436.07,227.09 L 436.04,225.20 L 436.02,221.06 L 436.01,218.96 L 436.05,214.67 L 436.07,212.55 L 436.16,208.51 L 436.21,206.56 L 436.36,203.15 L 436.40,202.35 L 436.49,200.94 L 436.64,199.15 L 437.28,193.00 L 440.66,193.00 L 444.04,193.00 L 443.77,215.25 L 443.50,237.50 L 440.46,237.80 L 439.63,237.88 L 438.11,237.80 L 437.77,237.76 L 437.23,237.63 L 436.99,237.56 M 542.50,237.45 L 542.42,237.41 L 542.28,237.05 L 542.22,236.82 L 542.10,236.07 L 542.05,235.66 L 541.96,234.55 L 541.91,233.95 L 541.85,232.50 L 541.82,231.73 L 541.78,229.95 L 541.76,229.02 L 541.75,226.91 L 541.75,225.83 L 541.77,223.42 L 541.82,219.50 L 542.14,202.00 L 536.50,202.00 L 535.57,202.00 L 533.94,201.94 L 533.17,201.90 L 531.85,201.75 L 531.23,201.66 L 530.20,201.40 L 529.72,201.26 L 528.94,200.87 L 528.58,200.66 L 528.03,200.14 L 527.78,199.85 L 527.43,199.17 L 527.00,196.46 L 527.00,193.00 L 543.92,193.00 L 546.24,193.00 L 550.61,192.95 L 552.71,192.92 L 556.32,192.83 L 557.16,192.80 L 558.62,192.74 L 559.31,192.71 L 560.44,192.64 L 560.97,192.60 L 561.72,192.53 L 562.38,192.41 L 562.60,192.32 L 563.03,192.36 L 563.24,192.41 L 563.62,192.68 L 563.99,193.01 L 564.52,194.20 L 564.74,194.85 L 564.88,196.44 L 564.54,198.88 L 564.40,199.32 L 563.96,199.94 L 563.69,200.22 L 562.80,200.60 L 562.27,200.76 L 560.67,200.98 L 560.22,201.03 L 559.13,201.10 L 557.20,201.21 L 550.50,201.50 L 550.00,219.50 L 549.50,237.50 L 546.50,237.69 L 545.67,237.75 L 544.09,237.70 L 543.36,237.66 M 590.71,237.38 L 590.66,237.33 L 590.57,236.78 L 590.52,236.44 L 590.44,235.34 L 590.39,234.73 L 590.32,233.15 L 590.28,232.31 L 590.21,230.32 L 590.18,229.27 L 590.12,226.92 L 590.10,225.71 L 590.06,223.06 L 590.00,214.33 L 590.00,192.00 L 594.02,192.00 L 598.04,192.00 L 597.77,214.75 L 597.50,237.50 L 594.46,237.80 L 593.63,237.88 L 592.11,237.80 L 591.77,237.76 L 591.23,237.63 L 590.99,237.56 M 711.50,237.00 L 711.23,236.87 L 710.45,236.41 L 710.04,236.15 L 709.09,235.47 L 706.09,233.04 L 702.69,229.96 L 705.02,227.48 L 705.72,226.73 L 706.89,225.78 L 707.46,225.39 L 708.59,225.14 L 709.17,225.11 L 710.55,225.56 L 713.23,227.00 L 713.96,227.45 L 715.41,228.11 L 716.12,228.40 L 717.48,228.74 L 718.14,228.88 L 719.37,228.93 L 719.96,228.92 L 721.02,228.69 L 721.52,228.54 L 722.35,228.03 L 722.74,227.75 L 723.31,226.99 L 723.56,226.58 L 723.82,225.57 L 723.83,223.81 L 723.77,223.39 L 723.37,222.60 L 723.12,222.20 L 722.30,221.40 L 721.84,221.00 L 720.54,220.15 L 718.00,218.76 L 716.02,217.77 L 712.79,215.66 L 711.29,214.58 L 709.03,212.30 L 708.03,211.14 L 706.76,208.71 L 706.00,204.92 L 706.00,203.59 L 706.48,201.18 L 706.79,200.02 L 707.83,197.99 L 708.42,197.02 L 709.93,195.41 L 710.74,194.66 L 712.64,193.51 L 713.63,192.99 L 715.84,192.35 L 716.97,192.09 L 719.39,192.00 L 720.62,192.03 L 723.17,192.54 L 727.04,194.02 L 728.17,194.60 L 729.68,195.75 L 730.31,196.33 L 730.84,197.59 L 730.99,198.24 L 730.56,199.75 L 728.88,202.43 L 728.35,203.09 L 727.63,203.94 L 727.29,204.29 L 726.76,204.53 L 726.49,204.58 L 725.89,204.26 L 724.63,203.21 L 723.88,202.54 L 722.50,201.58 L 721.82,201.16 L 720.52,200.69 L 719.87,200.51 L 718.56,200.51 L 716.49,201.00 L 715.84,201.25 L 714.92,201.86 L 714.52,202.18 L 714.09,202.92 L 713.93,203.31 L 713.98,204.17 L 714.06,204.61 L 714.57,205.56 L 714.88,206.04 L 715.84,207.07 L 716.38,207.59 L 717.78,208.68 L 718.54,209.22 L 720.37,210.34 L 723.58,212.04 L 725.04,212.74 L 727.51,214.48 L 728.67,215.40 L 730.48,217.47 L 731.29,218.53 L 732.35,220.83 L 733.00,224.39 L 733.00,225.42 L 732.73,227.33 L 732.56,228.27 L 731.95,229.98 L 731.61,230.81 L 730.70,232.31 L 730.20,233.03 L 729.00,234.28 L 728.37,234.87 L 726.90,235.86 L 726.13,236.31 L 724.42,237.01 L 723.54,237.33 L 721.61,237.72 L 718.50,237.93 L 717.12,237.92 L 714.38,237.63 L 713.75,237.55 L 712.67,237.34 L 712.18,237.23 M 38.57,163.12 L 38.52,163.03 L 38.76,162.31 L 38.93,161.88 L 39.57,160.60 L 39.93,159.91 L 40.88,158.24 L 42.55,155.48 L 43.15,154.52 L 44.58,152.21 L 45.32,151.03 L 46.88,148.49 L 47.66,147.23 L 49.16,144.77 L 51.13,141.50 L 51.71,140.54 L 53.22,138.09 L 54.01,136.81 L 55.80,133.99 L 56.70,132.57 L 58.54,129.72 L 61.12,125.78 L 61.92,124.58 L 63.50,122.17 L 64.27,120.99 L 65.68,118.80 L 66.35,117.76 L 67.42,116.04 L 68.49,114.28 L 68.92,113.51 L 70.10,111.53 L 71.78,108.83 L 72.10,108.33 L 73.15,106.66 L 73.72,105.74 L 75.16,103.42 L 75.91,102.20 L 77.60,99.46 L 78.46,98.06 L 80.25,95.14 L 81.14,93.68 L 82.88,90.82 L 83.74,89.42 L 85.29,86.87 L 86.02,85.65 L 87.23,83.64 L 88.50,81.49 L 89.79,79.26 L 92.56,74.55 L 93.97,72.17 L 96.85,67.34 L 98.29,64.93 L 101.14,60.22 L 102.55,57.90 L 105.23,53.54 L 106.53,51.42 L 108.89,47.63 L 110.02,45.83 L 111.93,42.86 L 112.37,42.18 L 113.14,41.00 L 113.50,40.45 L 114.11,39.56 L 114.39,39.15 L 114.82,38.57 L 115.24,38.08 L 115.50,37.85 L 116.64,37.49 L 117.30,37.32 L 119.06,37.08 L 119.99,36.98 L 122.14,36.86 L 123.24,36.81 L 125.54,36.81 L 126.70,36.82 L 128.94,36.94 L 130.03,37.01 L 131.99,37.24 L 132.91,37.36 L 134.35,37.70 L 135.69,38.32 L 135.77,38.41 L 136.03,38.81 L 136.18,39.04 L 136.56,39.73 L 136.96,40.48 L 138.04,42.68 L 138.61,43.87 L 139.92,46.75 L 142.01,51.50 L 142.71,53.15 L 144.07,56.32 L 144.73,57.85 L 145.89,60.56 L 146.44,61.83 L 147.29,63.78 L 147.47,64.20 L 147.76,64.85 L 148.05,65.50 L 148.11,65.64 L 148.33,66.16 L 148.45,66.45 L 148.79,67.26 L 149.14,68.14 L 150.13,70.58 L 150.65,71.90 L 151.88,74.99 L 153.85,80.00 L 154.19,80.86 L 154.99,82.89 L 155.41,83.95 L 156.35,86.31 L 157.32,88.75 L 159.53,94.26 L 160.65,97.07 L 162.97,102.83 L 166.29,111.00 L 167.32,113.54 L 169.50,118.89 L 170.58,121.56 L 172.67,126.71 L 173.17,127.96 L 174.13,130.31 L 174.59,131.45 L 175.44,133.55 L 175.84,134.55 L 176.55,136.31 L 177.43,138.50 L 177.93,139.74 L 178.91,142.15 L 179.39,143.33 L 180.26,145.44 L 180.67,146.44 L 181.33,148.01 L 181.97,149.50 L 182.84,151.38 L 184.23,154.53 L 184.86,156.00 L 185.79,158.30 L 186.19,159.35 L 186.65,160.81 L 186.81,162.02 L 186.79,162.09 L 185.96,162.22 L 185.43,162.28 L 183.70,162.42 L 182.73,162.48 L 180.20,162.61 L 178.86,162.68 L 175.69,162.81 L 174.03,162.88 L 170.35,163.00 L 168.45,163.06 L 164.38,163.18 L 160.23,163.29 L 151.35,163.48 L 146.90,163.57 L 138.20,163.70 L 136.08,163.73 L 132.07,163.76 L 130.12,163.78 L 126.52,163.79 L 124.78,163.79 L 121.72,163.78 L 120.27,163.77 L 117.89,163.72 L 116.80,163.70 L 115.22,163.62 L 113.91,163.47 L 113.69,163.40 L 113.22,163.10 L 112.98,162.92 L 112.45,162.35 L 112.18,162.03 L 111.57,161.13 L 111.25,160.63 L 110.52,159.33 L 110.13,158.63 L 109.24,156.87 L 108.77,155.92 L 107.68,153.64 L 107.11,152.42 L 105.79,149.55 L 103.52,144.50 L 103.10,143.57 L 102.41,142.07 L 102.11,141.37 L 101.79,140.27 L 101.69,139.77 L 101.91,139.02 L 102.11,138.67 L 103.07,138.19 L 103.66,137.98 L 105.54,137.70 L 106.08,137.65 L 107.36,137.55 L 108.03,137.51 L 109.61,137.45 L 110.43,137.42 L 112.33,137.38 L 113.31,137.36 L 115.55,137.33 L 116.71,137.31 L 119.31,137.28 L 123.65,137.23 L 145.79,136.96 L 143.87,131.73 L 143.33,130.29 L 142.24,127.45 L 141.99,126.79 L 141.55,125.69 L 141.05,124.50 L 140.93,124.22 L 140.49,123.09 L 140.24,122.45 L 139.61,120.74 L 139.28,119.83 L 138.53,117.76 L 137.38,114.50 L 136.61,112.30 L 135.03,108.12 L 134.66,107.16 L 134.02,105.60 L 133.30,104.00 L 132.94,103.31 L 132.39,101.90 L 132.01,100.36 L 132.01,100.21 L 131.89,99.70 L 131.81,99.42 L 131.56,98.72 L 130.51,96.36 L 130.10,95.58 L 129.45,93.84 L 129.01,91.81 L 129.00,91.34 L 128.74,90.46 L 128.12,89.58 L 128.00,89.50 L 127.70,89.03 L 127.54,88.75 L 127.19,87.94 L 126.17,84.77 L 125.87,83.59 L 124.94,81.17 L 124.70,80.60 L 124.21,79.61 L 123.51,78.50 L 123.27,78.20 L 122.91,77.68 L 122.73,77.45 L 122.40,77.19 L 122.23,77.11 L 121.82,77.28 L 121.58,77.43 L 120.96,78.19 L 120.61,78.66 L 119.65,80.17 L 119.38,80.60 L 118.76,81.64 L 118.44,82.19 L 117.70,83.47 L 117.31,84.14 L 116.42,85.69 L 115.96,86.50 L 114.92,88.33 L 114.38,89.28 L 113.17,91.42 L 111.14,95.00 L 109.42,98.03 L 105.63,104.64 L 103.70,108.00 L 99.65,114.99 L 97.61,118.50 L 93.52,125.50 L 91.49,128.97 L 87.58,135.61 L 85.67,138.85 L 82.16,144.74 L 81.32,146.15 L 79.75,148.77 L 78.99,150.04 L 77.60,152.34 L 76.93,153.45 L 75.74,155.39 L 75.18,156.31 L 74.23,157.84 L 73.78,158.55 L 73.09,159.63 L 72.38,160.68 L 70.01,163.86 L 54.50,163.82 L 52.37,163.82 L 48.44,163.76 L 46.57,163.72 L 43.42,163.60 L 42.70,163.57 L 41.46,163.50 L 40.88,163.46 L 39.96,163.38 L 39.54,163.34 L 38.97,163.26 L 38.74,163.21 M 296.90,158.19 L 296.16,157.39 L 294.46,155.49 L 293.59,154.50 L 291.79,152.42 L 290.91,151.37 L 289.24,149.36 L 287.10,146.69 L 282.70,141.00 L 265.37,141.00 L 264.11,141.00 L 261.83,140.99 L 260.73,140.99 L 258.76,140.98 L 257.81,140.98 L 256.13,140.99 L 255.33,141.00 L 253.92,141.05 L 252.57,141.11 L 250.59,141.40 L 249.70,141.59 L 248.49,142.23 L 247.97,142.60 L 247.37,143.72 L 247.13,144.34 L 246.96,146.06 L 246.91,147.01 L 246.98,149.45 L 247.18,154.08 L 247.50,162.50 L 234.25,162.78 L 221.00,163.06 L 221.00,100.03 L 221.00,37.00 L 254.28,37.00 L 258.20,37.00 L 265.34,37.04 L 268.80,37.07 L 275.03,37.18 L 278.03,37.24 L 283.37,37.41 L 285.93,37.50 L 290.39,37.72 L 292.51,37.85 L 296.11,38.14 L 297.81,38.29 L 300.58,38.65 L 301.86,38.84 L 303.81,39.26 L 305.83,39.97 L 306.06,40.09 L 306.87,40.49 L 307.33,40.71 L 308.48,41.26 L 312.50,43.12 L 313.44,43.55 L 315.34,44.65 L 316.30,45.23 L 318.22,46.63 L 320.13,48.09 L 323.81,51.72 L 325.61,53.63 L 328.83,57.92 L 332.80,64.72 L 336.50,72.50 L 336.50,87.50 L 336.50,89.36 L 336.49,92.44 L 336.49,93.88 L 336.45,96.24 L 336.42,97.34 L 336.32,99.15 L 336.26,100.01 L 336.09,101.43 L 335.88,102.79 L 335.12,105.07 L 334.89,105.66 L 334.32,106.93 L 333.25,109.14 L 332.25,111.19 L 329.73,115.18 L 328.40,117.14 L 325.35,120.82 L 323.78,122.61 L 320.36,125.80 L 315.01,129.82 L 314.25,130.29 L 312.84,131.19 L 312.17,131.62 L 311.02,132.35 L 310.49,132.69 L 309.73,133.18 L 309.17,133.56 L 309.15,133.57 L 309.36,133.90 L 309.51,134.11 L 310.03,134.79 L 310.33,135.17 L 311.13,136.15 L 311.57,136.68 L 312.62,137.94 L 313.17,138.60 L 314.43,140.09 L 315.08,140.86 L 316.52,142.54 L 321.36,148.11 L 323.08,150.08 L 326.17,153.73 L 326.91,154.60 L 328.25,156.23 L 328.90,157.02 L 330.05,158.44 L 330.59,159.13 L 331.50,160.31 L 331.93,160.87 L 332.58,161.77 L 332.87,162.18 L 333.22,162.75 L 333.37,163.20 L 333.34,163.26 L 332.96,163.36 L 332.73,163.42 L 331.98,163.51 L 331.56,163.56 L 330.48,163.65 L 329.90,163.69 L 328.54,163.77 L 327.11,163.84 L 323.57,163.94 L 317.59,164.00 L 302.30,164.00 L 296.90,158.19 M 296.00,111.06 L 297.18,110.24 L 299.40,108.39 L 300.48,107.43 L 302.46,105.35 L 303.42,104.29 L 305.13,102.03 L 307.32,98.50 L 307.73,97.74 L 308.38,95.99 L 308.68,95.08 L 309.11,93.11 L 309.49,91.09 L 309.61,86.76 L 309.56,84.60 L 308.84,80.53 L 308.61,79.56 L 307.98,77.80 L 306.82,75.50 L 305.96,74.16 L 304.28,71.96 L 303.43,70.92 L 301.64,69.20 L 300.71,68.39 L 298.64,66.99 L 295.00,65.08 L 293.98,64.62 L 291.96,63.99 L 291.41,63.85 L 290.13,63.63 L 289.45,63.52 L 287.81,63.37 L 286.93,63.30 L 284.77,63.20 L 283.62,63.15 L 280.81,63.09 L 279.31,63.07 L 275.71,63.04 L 269.25,63.02 L 266.33,63.02 L 260.99,63.07 L 259.72,63.09 L 257.38,63.14 L 256.24,63.16 L 254.22,63.23 L 253.25,63.26 L 251.61,63.34 L 250.84,63.37 L 249.63,63.46 L 249.09,63.50 L 248.37,63.60 L 247.92,63.75 L 247.92,63.83 L 247.90,64.44 L 247.89,64.82 L 247.88,65.97 L 247.88,66.61 L 247.86,68.24 L 247.86,69.10 L 247.85,71.11 L 247.84,72.16 L 247.84,74.48 L 247.83,75.67 L 247.83,78.23 L 247.82,80.82 L 247.81,86.39 L 247.81,89.18 L 247.81,94.66 L 247.82,97.33 L 247.83,102.11 L 247.83,103.23 L 247.84,105.24 L 247.84,106.19 L 247.85,107.81 L 247.86,108.56 L 247.87,109.71 L 247.89,110.82 L 248.00,114.14 L 270.25,113.82 L 271.61,113.80 L 274.08,113.76 L 275.28,113.74 L 277.45,113.71 L 278.50,113.69 L 280.39,113.65 L 281.31,113.63 L 282.95,113.59 L 284.53,113.55 L 287.04,113.44 L 288.19,113.38 L 289.98,113.22 L 290.81,113.13 L 292.08,112.90 L 292.66,112.77 L 293.59,112.45 L 294.47,112.11 M 374.25,163.26 L 367.00,162.91 L 367.00,99.96 L 367.00,37.00 L 381.00,37.00 L 395.00,37.00 L 395.00,63.94 L 395.00,67.65 L 395.06,74.44 L 395.08,76.06 L 395.13,79.05 L 395.16,80.50 L 395.22,83.10 L 395.25,84.34 L 395.33,86.46 L 395.37,87.46 L 395.46,89.03 L 395.50,89.74 L 395.60,90.69 L 395.75,91.33 L 395.80,91.36 L 396.14,91.15 L 396.34,91.01 L 396.96,90.47 L 397.30,90.16 L 398.17,89.33 L 398.63,88.88 L 399.71,87.79 L 400.27,87.21 L 401.53,85.90 L 402.18,85.21 L 403.58,83.71 L 408.17,78.64 L 409.59,77.04 L 412.13,74.17 L 413.36,72.77 L 415.62,70.20 L 417.82,67.67 L 421.89,62.90 L 422.92,61.68 L 425.05,59.14 L 426.14,57.83 L 428.47,55.00 L 429.67,53.54 L 432.34,50.28 L 436.84,44.75 L 443.13,37.00 L 462.15,37.00 L 481.18,37.00 L 476.84,41.90 L 476.54,42.23 L 475.73,43.15 L 475.28,43.65 L 474.22,44.85 L 473.65,45.49 L 472.38,46.92 L 471.72,47.66 L 470.28,49.28 L 468.81,50.93 L 465.56,54.58 L 460.60,60.15 L 459.79,61.07 L 457.94,63.14 L 456.99,64.21 L 454.93,66.54 L 452.82,68.91 L 448.26,74.06 L 445.97,76.65 L 441.44,81.78 L 440.33,83.03 L 438.23,85.42 L 435.29,88.76 L 421.87,104.03 L 424.19,106.88 L 424.35,107.08 L 424.98,107.82 L 425.34,108.24 L 426.35,109.40 L 426.89,110.02 L 428.22,111.53 L 428.92,112.32 L 430.52,114.13 L 431.35,115.07 L 433.17,117.12 L 434.11,118.17 L 436.11,120.40 L 442.50,127.54 L 444.29,129.53 L 447.56,133.16 L 449.14,134.93 L 452.02,138.14 L 453.41,139.69 L 455.93,142.50 L 457.14,143.85 L 459.32,146.29 L 460.37,147.46 L 462.23,149.55 L 463.13,150.55 L 464.70,152.33 L 465.45,153.18 L 466.76,154.66 L 467.38,155.37 L 468.45,156.60 L 468.95,157.18 L 469.80,158.18 L 470.20,158.65 L 470.86,159.44 L 471.47,160.19 L 472.22,161.19 L 472.53,161.63 L 472.83,162.18 L 472.97,162.75 L 472.97,162.87 L 472.79,163.08 L 472.66,163.18 L 472.17,163.35 L 471.89,163.43 L 471.09,163.56 L 470.64,163.63 L 469.46,163.73 L 468.83,163.78 L 467.25,163.86 L 466.41,163.89 L 464.41,163.94 L 463.34,163.96 L 460.86,163.99 L 456.57,164.00 L 440.14,164.00 L 435.66,159.25 L 435.05,158.60 L 433.58,156.97 L 432.82,156.12 L 431.21,154.28 L 430.41,153.35 L 428.85,151.51 L 426.79,149.00 L 424.59,146.24 L 420.61,141.23 L 419.65,140.02 L 417.87,137.76 L 416.99,136.65 L 415.39,134.61 L 414.61,133.62 L 413.19,131.81 L 412.51,130.93 L 411.31,129.38 L 410.74,128.63 L 409.75,127.35 L 408.55,125.75 L 407.78,124.72 L 406.20,123.10 L 405.83,122.76 L 405.19,122.30 L 404.47,122.00 L 404.30,122.00 L 403.65,122.39 L 403.29,122.63 L 402.36,123.44 L 401.87,123.88 L 400.78,124.99 L 399.09,126.89 L 395.00,131.78 L 395.00,147.89 L 395.00,164.00 L 388.25,163.80 L 387.32,163.77 L 385.06,163.70 L 383.88,163.66 L 381.35,163.56 L 380.08,163.51 L 377.60,163.41 L 376.39,163.36 M 517.70,163.36 L 517.67,163.34 L 517.62,162.96 L 517.60,162.73 L 517.56,161.94 L 517.53,161.50 L 517.49,160.32 L 517.47,159.68 L 517.43,158.13 L 517.40,157.31 L 517.36,155.41 L 517.34,154.42 L 517.31,152.20 L 517.29,151.05 L 517.25,148.52 L 517.24,147.22 L 517.20,144.40 L 517.17,141.52 L 517.12,135.01 L 517.09,131.64 L 517.05,124.27 L 517.04,120.49 L 517.01,112.45 L 517.00,99.80 L 517.00,36.94 L 529.73,37.22 L 542.45,37.50 L 554.34,51.50 L 556.31,53.82 L 560.05,58.23 L 561.89,60.39 L 565.37,64.51 L 567.09,66.53 L 570.32,70.35 L 571.91,72.23 L 574.92,75.79 L 576.39,77.54 L 579.17,80.84 L 580.53,82.46 L 583.10,85.51 L 584.36,87.01 L 586.72,89.83 L 587.88,91.22 L 590.05,93.82 L 591.11,95.10 L 593.10,97.50 L 594.08,98.68 L 595.90,100.88 L 597.68,103.05 L 600.78,106.85 L 602.26,108.67 L 604.82,111.87 L 608.14,116.10 L 608.98,117.19 L 610.56,119.17 L 611.32,120.11 L 612.64,121.68 L 613.25,122.40 L 614.15,123.38 L 614.87,124.00 L 614.90,124.00 L 614.94,123.77 L 614.96,123.63 L 614.99,123.11 L 615.03,122.53 L 615.10,120.57 L 615.13,119.46 L 615.18,116.55 L 615.20,114.98 L 615.23,111.22 L 615.25,109.25 L 615.27,104.78 L 615.28,102.46 L 615.28,97.39 L 615.28,94.79 L 615.26,89.24 L 615.22,80.50 L 614.94,37.00 L 628.34,37.00 L 641.74,37.00 L 642.29,41.75 L 642.30,41.86 L 642.33,42.39 L 642.34,42.71 L 642.36,43.64 L 642.37,44.15 L 642.39,45.44 L 642.40,46.13 L 642.41,47.77 L 642.42,48.63 L 642.43,50.58 L 642.44,51.59 L 642.45,53.84 L 642.47,56.14 L 642.48,61.51 L 642.49,64.30 L 642.50,70.48 L 642.50,73.65 L 642.51,80.43 L 642.51,83.87 L 642.50,91.02 L 642.50,94.63 L 642.48,101.96 L 642.48,105.62 L 642.46,112.91 L 642.45,116.53 L 642.42,123.56 L 642.41,127.02 L 642.38,133.59 L 642.37,136.79 L 642.33,142.67 L 642.31,145.51 L 642.27,150.50 L 642.26,151.69 L 642.24,153.85 L 642.23,154.89 L 642.21,156.76 L 642.20,157.65 L 642.18,159.19 L 642.16,159.92 L 642.14,161.11 L 642.13,161.66 L 642.10,162.48 L 642.06,163.25 L 642.06,163.30 L 641.77,163.40 L 641.58,163.45 L 640.94,163.54 L 640.59,163.59 L 639.65,163.67 L 639.14,163.71 L 637.94,163.78 L 636.67,163.85 L 633.51,163.94 L 628.11,164.00 L 626.12,164.00 L 622.90,164.01 L 621.40,164.01 L 619.00,163.93 L 617.88,163.87 L 616.06,163.61 L 615.21,163.45 L 613.75,162.90 L 613.05,162.58 L 611.74,161.63 L 611.07,161.10 L 609.67,159.66 L 608.94,158.87 L 607.22,156.84 L 604.05,153.00 L 603.20,151.97 L 601.14,149.50 L 600.08,148.22 L 597.81,145.50 L 596.67,144.14 L 594.46,141.50 L 591.52,138.00 L 589.20,135.25 L 584.78,129.99 L 582.60,127.40 L 578.48,122.48 L 576.46,120.07 L 572.68,115.54 L 570.84,113.33 L 567.42,109.22 L 565.77,107.22 L 562.75,103.56 L 561.29,101.79 L 558.70,98.63 L 557.46,97.11 L 555.32,94.47 L 552.66,91.15 L 551.72,89.96 L 549.94,87.76 L 549.08,86.71 L 547.57,84.94 L 546.87,84.13 L 545.82,82.98 L 545.59,82.74 L 545.25,82.41 L 544.93,82.17 L 544.86,82.15 L 544.73,82.88 L 544.67,83.37 L 544.54,85.08 L 544.48,86.05 L 544.37,88.64 L 544.31,90.04 L 544.20,93.44 L 544.15,95.24 L 544.06,99.37 L 544.01,101.52 L 543.93,106.30 L 543.90,108.76 L 543.83,114.11 L 543.76,122.67 L 543.50,163.50 L 530.95,163.78 L 529.22,163.82 L 526.02,163.83 L 524.48,163.83 L 521.87,163.77 L 520.67,163.73 L 518.96,163.61 L 518.60,163.58 L 518.09,163.50 L 517.88,163.45 M 680.00,100.60 L 680.00,37.00 L 732.53,37.00 L 785.06,37.00 L 784.78,50.25 L 784.50,63.50 L 746.25,63.76 L 708.00,64.02 L 708.00,100.51 L 708.00,137.00 L 746.39,137.00 L 748.26,137.00 L 751.74,137.00 L 753.44,137.01 L 756.61,137.01 L 758.15,137.02 L 761.02,137.03 L 762.42,137.04 L 764.99,137.06 L 766.24,137.07 L 768.54,137.09 L 769.66,137.11 L 771.69,137.14 L 773.66,137.17 L 776.86,137.26 L 778.35,137.31 L 780.65,137.43 L 781.70,137.49 L 783.20,137.65 L 783.87,137.73 L 784.68,137.92 L 785.22,138.25 L 785.24,138.31 L 785.27,138.65 L 785.29,138.85 L 785.32,139.46 L 785.34,140.12 L 785.38,142.08 L 785.39,143.14 L 785.40,145.67 L 785.40,146.99 L 785.39,149.81 L 785.38,151.23 L 785.35,154.05 L 785.33,155.43 L 785.27,157.95 L 785.24,159.15 L 785.18,161.08 L 785.06,163.00 L 785.05,163.02 L 784.78,163.05 L 784.59,163.07 L 783.97,163.11 L 783.62,163.13 L 782.67,163.16 L 782.15,163.18 L 780.89,163.22 L 780.22,163.24 L 778.67,163.28 L 777.86,163.30 L 776.03,163.34 L 774.13,163.38 L 769.59,163.46 L 767.21,163.50 L 761.81,163.57 L 759.01,163.61 L 752.89,163.68 L 749.75,163.71 L 743.05,163.77 L 732.50,163.85 L 680.00,164.21 L 680.00,100.60 M 861.00,113.53 L 861.00,64.00 L 842.50,64.00 L 824.00,64.00 L 824.00,50.50 L 824.00,37.00 L 876.50,37.00 L 929.00,37.00 L 929.00,49.87 L 929.00,62.74 L 925.25,63.36 L 924.99,63.40 L 924.17,63.48 L 923.70,63.52 L 922.51,63.60 L 921.88,63.64 L 920.37,63.71 L 919.59,63.74 L 917.83,63.80 L 916.02,63.86 L 911.86,63.94 L 905.26,63.99 L 889.02,64.00 L 888.76,113.25 L 888.50,162.50 L 874.75,162.78 L 861.00,163.06 L 861.00,113.53 M 722.00,101.00 L 722.00,89.00 L 743.50,89.00 L 765.00,89.00 L 765.00,101.00 L 765.00,113.00 L 743.50,113.00 L 722.00,113.00 L 722.00,101.00 Z" fill="rgba(253,252,253,1)"/>
</g>
</svg>