<svg xmlns="http://www.w3.org/2000/svg" width="182" height="164" viewBox="0 0 182 164">
  <g>
    <path d="M 15.00,143.32 L 15.00,143.23 L 15.26,142.66 L 15.44,142.32 L 15.99,141.35 L 16.29,140.83 L 17.05,139.60 L 18.35,137.57 L 18.82,136.88 L 20.00,135.05 L 20.62,134.09 L 22.00,131.93 L 22.69,130.84 L 24.09,128.62 L 26.04,125.50 L 26.34,125.02 L 27.07,123.85 L 27.45,123.23 L 28.33,121.84 L 29.24,120.39 L 31.36,117.03 L 38.06,106.50 L 39.12,104.85 L 41.58,100.97 L 42.85,98.98 L 45.48,94.79 L 46.79,92.71 L 49.28,88.72 L 49.88,87.76 L 51.00,85.95 L 52.51,83.50 L 53.44,81.99 L 55.26,79.03 L 56.15,77.59 L 57.76,75.00 L 58.51,73.77 L 59.72,71.84 L 59.99,71.41 L 60.42,70.73 L 60.88,70.00 L 61.33,69.31 L 62.17,67.94 L 63.00,66.50 L 63.15,66.20 L 63.63,65.31 L 63.90,64.83 L 64.58,63.63 L 65.31,62.37 L 67.13,59.30 L 68.07,57.72 L 70.02,54.52 L 72.66,50.33 L 73.12,49.62 L 73.96,48.27 L 74.36,47.62 L 75.02,46.50 L 75.32,45.97 L 75.74,45.19 L 76.00,44.54 L 76.00,44.45 L 76.15,44.09 L 76.24,43.87 L 76.55,43.31 L 77.86,41.21 L 77.99,41.02 L 78.36,40.46 L 78.55,40.16 L 79.04,39.38 L 79.56,38.56 L 80.89,36.41 L 81.58,35.28 L 83.14,32.71 L 85.54,28.68 L 86.34,27.33 L 87.96,24.76 L 88.76,23.51 L 90.25,21.33 L 90.96,20.31 L 92.15,18.76 L 92.42,18.43 L 92.87,17.92 L 93.40,17.43 L 93.73,17.20 L 94.91,16.82 L 95.58,16.65 L 97.28,16.37 L 98.18,16.25 L 100.22,16.09 L 101.26,16.03 L 103.43,15.98 L 104.52,15.97 L 106.63,16.03 L 107.66,16.08 L 109.53,16.26 L 110.41,16.37 L 111.83,16.67 L 113.24,17.25 L 113.46,17.42 L 113.93,17.94 L 114.17,18.24 L 114.72,19.06 L 115.01,19.51 L 115.65,20.67 L 115.98,21.30 L 116.74,22.85 L 117.14,23.67 L 118.04,25.65 L 118.51,26.70 L 119.57,29.15 L 120.12,30.44 L 121.36,33.41 L 123.45,38.50 L 124.45,40.98 L 126.42,45.74 L 126.87,46.82 L 127.62,48.62 L 128.42,50.50 L 128.60,50.91 L 129.22,52.41 L 129.57,53.26 L 130.44,55.41 L 130.90,56.54 L 131.91,59.07 L 133.47,63.00 L 134.50,65.61 L 136.52,70.64 L 136.98,71.78 L 137.76,73.68 L 138.60,75.65 L 138.99,76.52 L 139.59,78.08 L 139.72,78.43 L 139.89,78.98 L 140.00,79.50 L 140.00,79.60 L 140.11,80.02 L 140.19,80.26 L 140.42,80.92 L 141.44,83.35 L 141.64,83.78 L 142.20,85.09 L 142.51,85.79 L 143.22,87.48 L 145.48,93.00 L 146.20,94.79 L 147.59,98.18 L 147.91,98.95 L 148.44,100.21 L 148.99,101.50 L 149.12,101.77 L 149.67,103.07 L 149.99,103.81 L 150.84,105.85 L 151.29,106.94 L 152.34,109.46 L 154.00,113.50 L 154.59,114.94 L 155.57,117.33 L 156.03,118.46 L 156.81,120.35 L 157.18,121.24 L 157.81,122.76 L 158.11,123.49 L 158.65,124.80 L 159.19,126.09 L 160.27,128.64 L 160.56,129.33 L 161.22,130.88 L 162.39,133.63 L 163.11,135.31 L 164.23,138.58 L 164.47,139.33 L 164.79,140.57 L 165.00,141.89 L 165.00,144.02 L 127.36,143.76 L 125.34,143.75 L 121.62,143.72 L 119.81,143.70 L 116.48,143.67 L 114.86,143.66 L 111.90,143.63 L 110.46,143.61 L 107.85,143.57 L 106.58,143.55 L 104.30,143.51 L 103.19,143.49 L 101.21,143.44 L 100.25,143.42 L 98.55,143.37 L 97.74,143.34 L 96.30,143.28 L 94.93,143.22 L 92.87,143.06 L 91.95,142.98 L 90.66,142.79 L 90.10,142.68 L 89.42,142.44 L 88.88,142.00 L 88.51,141.34 L 87.61,139.56 L 87.13,138.61 L 86.09,136.39 L 85.02,134.11 L 82.83,129.09 L 82.31,127.86 L 81.35,125.55 L 80.89,124.43 L 80.13,122.48 L 79.78,121.57 L 79.30,120.18 L 79.00,118.94 L 79.00,118.48 L 79.45,117.85 L 79.65,117.72 L 80.33,117.51 L 80.73,117.41 L 81.93,117.27 L 82.61,117.21 L 84.47,117.12 L 85.49,117.09 L 88.15,117.04 L 89.59,117.02 L 93.19,117.01 L 94.15,117.00 L 96.28,117.00 L 99.80,117.00 L 101.56,117.00 L 104.75,116.98 L 106.29,116.97 L 109.05,116.93 L 110.38,116.91 L 112.72,116.84 L 113.83,116.81 L 115.75,116.72 L 116.66,116.68 L 118.16,116.57 L 118.86,116.51 L 119.96,116.37 L 120.45,116.30 L 121.14,116.14 L 121.72,115.88 L 121.93,115.67 L 122.18,115.17 L 122.27,114.91 L 122.28,114.25 L 122.26,113.90 L 122.03,113.02 L 121.42,111.38 L 121.03,110.45 L 120.02,108.04 L 118.63,104.75 L 118.26,103.85 L 117.46,101.50 L 116.56,98.26 L 116.36,97.37 L 115.78,95.81 L 115.64,95.46 L 115.34,94.93 L 114.92,94.45 L 114.67,94.30 L 114.27,93.60 L 114.00,92.34 L 114.00,92.13 L 113.89,91.50 L 113.81,91.15 L 113.57,90.33 L 112.54,87.65 L 112.34,87.22 L 111.86,86.11 L 111.62,85.53 L 111.09,84.25 L 109.64,80.50 L 108.60,77.65 L 106.54,71.93 L 106.03,70.54 L 105.08,67.88 L 104.62,66.58 L 103.76,64.19 L 103.35,63.04 L 102.64,61.02 L 102.30,60.07 L 101.77,58.54 L 101.52,57.84 L 101.20,56.90 L 101.00,56.26 L 101.00,56.19 L 100.71,56.08 L 100.00,56.00 L 99.72,56.00 L 99.29,56.40 L 99.00,57.35 L 99.00,57.45 L 98.89,57.83 L 98.82,58.04 L 98.59,58.64 L 98.32,59.28 L 97.48,61.08 L 97.02,62.04 L 95.88,64.30 L 95.29,65.46 L 93.98,67.93 L 93.33,69.16 L 91.99,71.59 L 91.33,72.78 L 90.10,74.92 L 89.51,75.93 L 88.50,77.54 L 87.41,79.08 L 87.02,79.51 L 86.41,80.40 L 86.00,81.37 L 86.00,81.42 L 85.66,82.10 L 85.44,82.53 L 84.70,83.88 L 84.29,84.63 L 83.20,86.55 L 82.62,87.58 L 81.25,89.98 L 80.53,91.24 L 78.91,94.03 L 78.08,95.47 L 76.29,98.56 L 74.45,101.71 L 70.48,108.50 L 68.48,111.92 L 64.48,118.68 L 63.50,120.34 L 61.62,123.51 L 60.69,125.07 L 58.95,127.98 L 58.11,129.40 L 56.57,131.95 L 55.83,133.18 L 54.54,135.29 L 53.94,136.28 L 52.96,137.84 L 51.91,139.48 L 48.86,144.00 L 31.93,144.00 L 29.60,144.00 L 25.36,143.95 L 23.33,143.91 L 19.97,143.80 L 19.21,143.77 L 17.90,143.70 L 17.29,143.66 L 16.34,143.59 L 15.91,143.55 L 15.35,143.46 L 15.12,143.42 Z" fill="currentColor"/>
  </g>
</svg>
