<svg xmlns="http://www.w3.org/2000/svg" width="182" height="164" viewBox="0 0 182 164">
<g>
<path d="M 134.45,144.12 L 142.10,144.14 L 145.60,144.18 L 149.02,144.22 L 150.60,144.25 L 153.67,144.31 L 155.03,144.35 L 157.63,144.42 L 158.73,144.47 L 160.78,144.57 L 161.56,144.62 L 162.95,144.73 L 163.37,144.80 L 164.00,144.93 L 164.00,145.00 L 163.80,145.16 L 163.39,145.23 L 162.39,145.36 L 161.59,145.42 L 159.80,145.53 L 158.61,145.58 L 156.05,145.67 L 154.48,145.70 L 151.15,145.77 L 149.20,145.79 L 145.12,145.83 L 142.81,145.85 L 138.00,145.86 L 135.32,145.86 L 129.78,145.86 L 126.75,145.84 L 118.99,145.80 L 114.29,145.75 L 112.19,145.73 L 108.18,145.67 L 106.46,145.64 L 103.19,145.57 L 101.86,145.53 L 99.39,145.45 L 98.48,145.41 L 96.87,145.32 L 96.40,145.27 L 95.71,145.17 L 95.72,145.12 L 95.98,145.02 L 96.50,144.97 L 99.10,144.77 L 101.31,144.64 L 102.62,144.59 L 105.35,144.49 L 106.89,144.44 L 110.06,144.36 L 111.77,144.32 L 118.93,144.20 L 122.78,144.17 L 130.58,144.12 M 42.61,144.63 L 44.02,144.65 L 44.63,144.67 L 45.77,144.71 L 46.23,144.75 L 47.07,144.83 L 47.37,144.88 L 47.87,144.98 L 47.97,145.05 L 48.10,145.18 L 48.01,145.24 L 47.73,145.36 L 47.45,145.41 L 46.78,145.51 L 46.31,145.55 L 45.27,145.63 L 44.63,145.66 L 43.24,145.73 L 42.42,145.75 L 40.71,145.79 L 39.73,145.81 L 37.71,145.83 L 36.58,145.83 L 34.26,145.83 L 33.00,145.82 L 16.50,145.70 L 31.47,144.92 L 37.54,144.69 L 41.14,144.62 M 100.86,58.41 L 101.40,58.98 L 101.78,59.58 L 101.97,59.96 L 102.72,61.67 L 103.02,62.62 L 103.55,64.50 L 103.65,65.26 L 103.72,65.98 L 103.71,66.24 L 103.63,66.70 L 103.52,66.81 L 102.76,66.77 L 102.14,66.22 L 101.88,65.74 L 100.79,64.51 L 99.91,64.00 L 99.53,64.00 L 99.08,64.15 L 98.76,64.41 L 98.07,65.07 L 97.67,65.54 L 96.84,66.58 L 96.40,67.21 L 95.53,68.53 L 95.10,69.25 L 93.91,71.19 L 93.22,72.23 L 92.94,72.59 L 92.43,73.20 L 92.27,73.31 L 92.03,73.41 L 92.02,73.24 L 92.33,71.82 L 92.83,70.61 L 93.18,69.95 L 93.94,68.61 L 94.38,67.97 L 95.28,66.72 L 95.75,66.22 L 96.64,64.76 L 97.02,63.64 L 97.03,63.18 L 97.48,61.35 L 98.11,60.15 L 98.51,59.65 L 99.34,58.75 L 99.76,58.52 L 100.56,58.23 Z" fill="rgb(22,2,72)"/>
<path d="M 182.00,164.00 L 0.00,164.00 L 0.00,0.00 L 182.00,0.00 M 122.78,144.17 L 118.93,144.20 L 111.77,144.32 L 110.06,144.36 L 106.89,144.44 L 105.35,144.49 L 102.62,144.59 L 101.31,144.64 L 99.10,144.77 L 96.50,144.97 L 95.98,145.02 L 95.72,145.12 L 95.71,145.17 L 96.40,145.27 L 96.87,145.32 L 98.48,145.41 L 99.39,145.45 L 101.86,145.53 L 103.19,145.57 L 106.46,145.64 L 108.18,145.67 L 112.19,145.73 L 114.29,145.75 L 118.99,145.80 L 126.75,145.84 L 129.78,145.86 L 135.32,145.86 L 138.00,145.86 L 142.81,145.85 L 145.12,145.83 L 149.20,145.79 L 151.15,145.77 L 154.48,145.70 L 156.05,145.67 L 158.61,145.58 L 159.80,145.53 L 161.59,145.42 L 162.39,145.36 L 163.39,145.23 L 163.80,145.16 L 164.00,145.00 L 164.00,144.93 L 163.37,144.80 L 162.95,144.73 L 161.56,144.62 L 160.78,144.57 L 158.73,144.47 L 157.63,144.42 L 155.03,144.35 L 153.67,144.31 L 150.60,144.25 L 149.02,144.22 L 145.60,144.18 L 142.10,144.14 L 134.45,144.12 L 130.58,144.12 M 37.54,144.69 L 31.47,144.92 L 16.50,145.70 L 33.00,145.82 L 34.26,145.83 L 36.58,145.83 L 37.71,145.83 L 39.73,145.81 L 40.71,145.79 L 42.42,145.75 L 43.24,145.73 L 44.63,145.66 L 45.27,145.63 L 46.31,145.55 L 46.78,145.51 L 47.45,145.41 L 47.73,145.36 L 48.01,145.24 L 48.10,145.18 L 47.97,145.05 L 47.87,144.98 L 47.37,144.88 L 47.07,144.83 L 46.23,144.75 L 45.77,144.71 L 44.63,144.67 L 44.02,144.65 L 42.61,144.63 L 41.14,144.62 M 98.01,17.12 L 96.64,17.14 L 96.08,17.17 L 95.06,17.25 L 94.64,17.32 L 93.23,17.66 L 92.73,17.97 L 91.81,18.68 L 91.32,19.22 L 90.80,19.90 L 90.29,20.64 L 89.97,21.13 L 89.27,22.20 L 88.86,22.84 L 88.01,24.19 L 87.53,24.94 L 85.52,28.18 L 84.40,30.01 L 82.13,33.76 L 80.98,35.68 L 78.69,39.51 L 77.63,41.30 L 75.60,44.78 L 74.76,46.23 L 73.96,47.64 L 73.63,48.24 L 73.00,49.38 L 72.76,49.83 L 72.33,50.65 L 72.20,50.92 L 72.00,51.36 L 72.00,51.43 L 71.72,52.00 L 71.29,52.75 L 70.97,53.27 L 70.28,54.39 L 69.86,55.05 L 68.98,56.41 L 68.50,57.14 L 67.14,59.28 L 66.35,60.62 L 66.03,61.20 L 65.45,62.27 L 65.28,62.67 L 65.00,63.35 L 65.00,63.49 L 64.80,64.11 L 64.47,64.69 L 64.24,65.04 L 63.12,66.55 L 62.40,67.32 L 60.51,69.71 L 60.04,70.44 L 59.89,70.75 L 59.63,71.32 L 59.60,71.51 L 58.98,73.02 L 58.22,74.21 L 57.77,74.70 L 56.30,76.71 L 55.37,78.31 L 55.07,79.00 L 54.13,81.04 L 53.39,82.40 L 52.90,83.22 L 51.81,84.96 L 51.05,86.10 L 50.26,87.30 L 49.79,87.99 L 48.82,89.42 L 48.25,90.25 L 46.99,92.14 L 46.25,93.28 L 45.95,93.76 L 45.42,94.64 L 45.26,94.94 L 45.00,95.44 L 45.00,95.51 L 44.74,96.08 L 44.33,96.79 L 44.03,97.26 L 43.37,98.29 L 42.97,98.88 L 42.14,100.11 L 41.69,100.76 L 39.14,104.55 L 38.45,105.62 L 38.19,106.04 L 37.75,106.79 L 37.65,107.00 L 35.25,111.26 L 33.58,113.57 L 32.73,114.41 L 31.64,115.88 L 31.33,116.73 L 31.47,116.95 L 31.23,118.03 L 30.52,119.03 L 29.98,119.52 L 28.58,121.14 L 28.00,122.20 L 28.00,122.53 L 27.56,123.76 L 26.90,124.66 L 26.49,125.01 L 25.74,125.82 L 25.15,126.62 L 24.84,127.11 L 23.53,129.25 L 22.99,130.38 L 20.85,134.29 L 20.02,135.64 L 19.62,136.25 L 18.84,137.43 L 18.50,137.90 L 16.73,140.69 L 16.32,141.52 L 16.20,141.85 L 16.00,142.46 L 16.00,142.65 L 16.05,142.91 L 16.17,143.02 L 16.46,143.23 L 16.71,143.31 L 17.30,143.48 L 17.72,143.55 L 18.64,143.68 L 19.25,143.73 L 20.57,143.82 L 21.40,143.85 L 23.16,143.91 L 24.23,143.93 L 26.49,143.97 L 27.82,143.98 L 30.63,143.99 L 32.25,143.98 L 38.65,143.92 L 42.48,143.83 L 44.05,143.76 L 45.56,143.69 L 46.21,143.65 L 47.42,143.57 L 47.90,143.52 L 48.77,143.43 L 49.06,143.38 L 49.54,143.29 L 49.62,143.23 L 50.61,142.05 L 51.24,140.87 L 51.43,140.25 L 52.22,138.66 L 52.85,138.00 L 53.12,138.00 L 53.62,137.74 L 54.03,137.34 L 54.26,137.05 L 55.20,135.64 L 55.61,134.75 L 57.98,130.09 L 58.96,128.40 L 59.61,127.33 L 60.29,126.22 L 60.69,125.58 L 61.52,124.25 L 61.99,123.49 L 64.20,119.87 L 64.90,118.68 L 65.21,118.15 L 65.79,117.15 L 65.99,116.78 L 66.97,115.07 L 67.92,113.42 L 68.51,112.42 L 71.08,108.05 L 72.44,105.78 L 76.47,98.90 L 77.65,96.85 L 78.12,96.01 L 78.97,94.48 L 79.22,94.00 L 81.10,90.65 L 82.48,88.33 L 83.02,87.50 L 84.71,84.79 L 85.75,83.05 L 86.04,82.50 L 87.29,80.20 L 88.34,78.31 L 88.80,77.48 L 89.81,75.66 L 90.74,73.94 L 91.29,72.92 L 93.68,68.47 L 94.88,66.19 L 96.67,63.01 L 97.34,61.92 L 97.03,63.18 L 97.02,63.64 L 96.64,64.76 L 95.75,66.22 L 95.28,66.72 L 94.38,67.97 L 93.94,68.61 L 93.18,69.95 L 92.83,70.61 L 92.33,71.82 L 92.02,73.24 L 92.03,73.41 L 92.27,73.31 L 92.43,73.20 L 92.94,72.59 L 93.22,72.23 L 93.91,71.19 L 95.10,69.25 L 95.53,68.53 L 96.40,67.21 L 96.84,66.58 L 97.67,65.54 L 98.07,65.07 L 98.76,64.41 L 99.08,64.15 L 99.53,64.00 L 99.91,64.00 L 100.79,64.51 L 101.88,65.74 L 102.14,66.22 L 102.76,66.77 L 103.52,66.81 L 103.63,66.70 L 103.71,66.24 L 103.72,65.98 L 103.65,65.26 L 103.55,64.50 L 103.24,63.43 L 103.36,63.69 L 103.67,64.47 L 104.88,67.69 L 105.30,69.12 L 105.69,70.50 L 105.81,71.07 L 106.00,72.13 L 106.00,72.49 L 106.40,74.53 L 106.98,75.99 L 107.35,76.53 L 108.52,78.80 L 109.23,80.67 L 109.43,81.49 L 110.28,84.01 L 110.98,85.48 L 111.29,85.85 L 112.20,87.58 L 112.68,89.10 L 112.78,89.81 L 113.42,92.39 L 114.11,94.25 L 114.48,94.95 L 115.70,97.41 L 116.35,98.90 L 116.58,99.55 L 116.97,100.77 L 117.07,101.24 L 117.18,102.10 L 117.12,102.36 L 117.26,103.30 L 117.60,104.04 L 117.85,104.36 L 118.26,105.05 L 118.55,105.71 L 118.70,106.10 L 119.26,107.81 L 119.45,108.68 L 120.35,111.27 L 121.16,112.72 L 121.55,113.04 L 122.40,114.14 L 122.58,114.87 L 122.43,115.11 L 121.88,115.29 L 121.10,115.40 L 120.53,115.46 L 119.25,115.56 L 118.45,115.61 L 116.74,115.70 L 115.74,115.74 L 113.66,115.82 L 112.50,115.85 L 110.10,115.91 L 108.81,115.93 L 103.39,116.00 L 79.00,116.00 L 79.03,118.75 L 79.49,121.26 L 80.13,122.91 L 80.53,123.44 L 81.57,125.35 L 82.00,126.72 L 82.00,127.22 L 82.32,128.80 L 82.57,129.52 L 82.75,129.95 L 83.15,130.88 L 83.41,131.43 L 83.97,132.59 L 84.32,133.27 L 85.06,134.71 L 85.51,135.55 L 86.44,137.31 L 86.99,138.33 L 88.15,140.44 L 88.81,141.65 L 90.12,144.02 L 127.31,143.76 L 164.50,143.50 L 164.36,140.29 L 163.89,137.64 L 163.22,135.40 L 162.74,134.12 L 161.69,131.46 L 161.05,130.05 L 159.69,127.19 L 158.93,125.76 L 158.27,124.20 L 158.00,123.19 L 158.00,122.87 L 157.83,122.06 L 157.56,121.23 L 157.37,120.70 L 156.45,118.38 L 155.86,117.11 L 153.91,112.83 L 153.26,111.38 L 152.97,110.72 L 152.43,109.48 L 152.22,109.00 L 150.79,105.65 L 149.78,103.32 L 149.42,102.50 L 148.75,100.90 L 148.18,99.54 L 147.87,98.77 L 146.56,95.51 L 145.97,94.00 L 143.89,88.91 L 143.15,87.19 L 142.82,86.42 L 142.17,84.96 L 141.91,84.39 L 140.56,81.06 L 140.25,80.10 L 140.15,79.72 L 140.00,79.03 L 140.00,78.83 L 139.57,77.24 L 138.94,75.97 L 138.53,75.44 L 137.49,73.43 L 137.04,71.91 L 137.03,71.31 L 136.75,69.60 L 136.36,68.72 L 136.12,68.57 L 135.65,67.96 L 135.24,67.19 L 135.00,66.67 L 134.02,64.29 L 133.55,62.87 L 132.70,60.47 L 132.02,58.67 L 131.65,57.74 L 130.89,55.90 L 130.51,55.03 L 129.77,53.36 L 129.43,52.67 L 127.71,48.79 L 127.32,47.75 L 127.19,47.36 L 127.00,46.70 L 127.00,46.55 L 126.84,45.84 L 126.59,45.13 L 126.41,44.69 L 125.55,42.76 L 125.00,41.74 L 123.59,38.63 L 123.26,37.70 L 123.16,37.31 L 123.00,36.62 L 123.00,36.39 L 122.87,35.65 L 122.65,34.93 L 122.48,34.47 L 122.10,33.49 L 121.85,32.90 L 121.31,31.66 L 120.98,30.96 L 119.54,27.90 L 118.61,26.06 L 116.63,22.19 L 115.46,20.00 L 114.49,18.60 L 113.61,18.00 L 112.85,17.81 L 112.02,17.65 L 111.48,17.59 L 110.32,17.47 L 109.59,17.43 L 108.03,17.35 L 107.06,17.32 L 105.01,17.25 L 103.77,17.22 L 100.53,17.14 L 98.74,17.12 M 100.35,58.28 L 100.36,58.30 L 99.98,58.44 L 100.20,58.23 Z" fill="rgb(37,0,87)"/>
<path d="M 16.00,142.65 L 16.00,142.46 L 16.20,141.85 L 16.32,141.52 L 16.73,140.69 L 18.50,137.90 L 18.84,137.43 L 19.62,136.25 L 20.02,135.64 L 20.85,134.29 L 22.99,130.38 L 23.53,129.25 L 24.84,127.11 L 25.15,126.62 L 25.74,125.82 L 26.49,125.01 L 26.90,124.66 L 27.56,123.76 L 28.00,122.53 L 28.00,122.20 L 28.58,121.14 L 29.98,119.52 L 30.52,119.03 L 31.23,118.03 L 31.47,116.95 L 31.33,116.73 L 31.64,115.88 L 32.73,114.41 L 33.58,113.57 L 35.25,111.26 L 37.65,107.00 L 37.75,106.79 L 38.19,106.04 L 38.45,105.62 L 39.14,104.55 L 41.69,100.76 L 42.14,100.11 L 42.97,98.88 L 43.37,98.29 L 44.03,97.26 L 44.33,96.79 L 44.74,96.08 L 45.00,95.51 L 45.00,95.44 L 45.26,94.94 L 45.42,94.64 L 45.95,93.76 L 46.25,93.28 L 46.99,92.14 L 48.25,90.25 L 48.82,89.42 L 49.79,87.99 L 50.26,87.30 L 51.05,86.10 L 51.81,84.96 L 52.90,83.22 L 53.39,82.40 L 54.13,81.04 L 55.07,79.00 L 55.37,78.31 L 56.30,76.71 L 57.77,74.70 L 58.22,74.21 L 58.98,73.02 L 59.60,71.51 L 59.63,71.32 L 59.89,70.75 L 60.04,70.44 L 60.51,69.71 L 62.40,67.32 L 63.12,66.55 L 64.24,65.04 L 64.47,64.69 L 64.80,64.11 L 65.00,63.49 L 65.00,63.35 L 65.28,62.67 L 65.45,62.27 L 66.03,61.20 L 66.35,60.62 L 67.14,59.28 L 68.50,57.14 L 68.98,56.41 L 69.86,55.05 L 70.28,54.39 L 70.97,53.27 L 71.29,52.75 L 71.72,52.00 L 72.00,51.43 L 72.00,51.36 L 72.20,50.92 L 72.33,50.65 L 72.76,49.83 L 73.00,49.38 L 73.63,48.24 L 73.96,47.64 L 74.76,46.23 L 75.60,44.78 L 77.63,41.30 L 78.69,39.51 L 80.98,35.68 L 82.13,33.76 L 84.40,30.01 L 85.52,28.18 L 87.53,24.94 L 88.01,24.19 L 88.86,22.84 L 89.27,22.20 L 89.97,21.13 L 90.29,20.64 L 90.80,19.90 L 91.32,19.22 L 91.81,18.68 L 92.73,17.97 L 93.23,17.66 L 94.64,17.32 L 95.06,17.25 L 96.08,17.17 L 96.64,17.14 L 98.01,17.12 L 98.74,17.12 L 100.53,17.14 L 103.77,17.22 L 105.01,17.25 L 107.06,17.32 L 108.03,17.35 L 109.59,17.43 L 110.32,17.47 L 111.48,17.59 L 112.02,17.65 L 112.85,17.81 L 113.61,18.00 L 114.49,18.60 L 115.46,20.00 L 116.63,22.19 L 118.61,26.06 L 119.54,27.90 L 120.98,30.96 L 121.31,31.66 L 121.85,32.90 L 122.10,33.49 L 122.48,34.47 L 122.65,34.93 L 122.87,35.65 L 123.00,36.39 L 123.00,36.62 L 123.16,37.31 L 123.26,37.70 L 123.59,38.63 L 125.00,41.74 L 125.55,42.76 L 126.41,44.69 L 126.59,45.13 L 126.84,45.84 L 127.00,46.55 L 127.00,46.70 L 127.19,47.36 L 127.32,47.75 L 127.71,48.79 L 129.43,52.67 L 129.77,53.36 L 130.51,55.03 L 130.89,55.90 L 131.65,57.74 L 132.02,58.67 L 132.70,60.47 L 133.55,62.87 L 134.02,64.29 L 135.00,66.67 L 135.24,67.19 L 135.65,67.96 L 136.12,68.57 L 136.36,68.72 L 136.75,69.60 L 137.03,71.31 L 137.04,71.91 L 137.49,73.43 L 138.53,75.44 L 138.94,75.97 L 139.57,77.24 L 140.00,78.83 L 140.00,79.03 L 140.15,79.72 L 140.25,80.10 L 140.56,81.06 L 141.91,84.39 L 142.17,84.96 L 142.82,86.42 L 143.15,87.19 L 143.89,88.91 L 145.97,94.00 L 146.56,95.51 L 147.87,98.77 L 148.18,99.54 L 148.75,100.90 L 149.42,102.50 L 149.78,103.32 L 150.79,105.65 L 152.22,109.00 L 152.43,109.48 L 152.97,110.72 L 153.26,111.38 L 153.91,112.83 L 155.86,117.11 L 156.45,118.38 L 157.37,120.70 L 157.56,121.23 L 157.83,122.06 L 158.00,122.87 L 158.00,123.19 L 158.27,124.20 L 158.93,125.76 L 159.69,127.19 L 161.05,130.05 L 161.69,131.46 L 162.74,134.12 L 163.22,135.40 L 163.89,137.64 L 164.36,140.29 L 164.50,143.50 L 127.31,143.76 L 90.12,144.02 L 88.81,141.65 L 88.15,140.44 L 86.99,138.33 L 86.44,137.31 L 85.51,135.55 L 85.06,134.71 L 84.32,133.27 L 83.97,132.59 L 83.41,131.43 L 83.15,130.88 L 82.75,129.95 L 82.57,129.52 L 82.32,128.80 L 82.00,127.22 L 82.00,126.72 L 81.57,125.35 L 80.53,123.44 L 80.13,122.91 L 79.49,121.26 L 79.03,118.75 L 79.00,116.00 L 100.44,116.00 L 103.39,116.00 L 108.81,115.93 L 110.10,115.91 L 112.50,115.85 L 113.66,115.82 L 115.74,115.74 L 116.74,115.70 L 118.45,115.61 L 119.25,115.56 L 120.53,115.46 L 121.10,115.40 L 121.88,115.29 L 122.43,115.11 L 122.58,114.87 L 122.40,114.14 L 121.55,113.04 L 121.16,112.72 L 120.35,111.27 L 119.45,108.68 L 119.26,107.81 L 118.70,106.10 L 118.55,105.71 L 118.26,105.05 L 117.85,104.36 L 117.60,104.04 L 117.26,103.30 L 117.12,102.36 L 117.18,102.10 L 117.07,101.24 L 116.97,100.77 L 116.58,99.55 L 116.35,98.90 L 115.70,97.41 L 114.48,94.95 L 114.11,94.25 L 113.42,92.39 L 112.78,89.81 L 112.68,89.10 L 112.20,87.58 L 111.29,85.85 L 110.98,85.48 L 110.28,84.01 L 109.43,81.49 L 109.23,80.67 L 108.52,78.80 L 107.35,76.53 L 106.98,75.99 L 106.40,74.53 L 106.00,72.49 L 106.00,72.13 L 105.81,71.07 L 105.69,70.50 L 105.30,69.12 L 104.88,67.69 L 103.67,64.47 L 103.36,63.69 L 102.72,62.21 L 102.40,61.50 L 101.79,60.28 L 101.49,59.72 L 100.97,58.90 L 100.35,58.28 L 100.20,58.23 L 99.58,58.80 L 99.23,59.17 L 98.30,60.46 L 97.80,61.17 L 96.67,63.01 L 94.88,66.19 L 93.68,68.47 L 91.29,72.92 L 90.74,73.94 L 89.81,75.66 L 88.80,77.48 L 88.34,78.31 L 87.29,80.20 L 86.04,82.50 L 85.75,83.05 L 84.71,84.79 L 83.02,87.50 L 82.48,88.33 L 81.10,90.65 L 79.22,94.00 L 78.97,94.48 L 78.12,96.01 L 77.65,96.85 L 76.47,98.90 L 72.44,105.78 L 71.08,108.05 L 68.51,112.42 L 67.92,113.42 L 66.97,115.07 L 65.99,116.78 L 65.79,117.15 L 65.21,118.15 L 64.90,118.68 L 64.20,119.87 L 61.99,123.49 L 61.52,124.25 L 60.69,125.58 L 60.29,126.22 L 59.61,127.33 L 58.96,128.40 L 57.98,130.09 L 55.61,134.75 L 55.20,135.64 L 54.26,137.05 L 54.03,137.34 L 53.62,137.74 L 53.12,138.00 L 52.85,138.00 L 52.22,138.66 L 51.43,140.25 L 51.24,140.87 L 50.61,142.05 L 49.62,143.23 L 49.54,143.29 L 49.06,143.38 L 48.77,143.43 L 47.90,143.52 L 47.42,143.57 L 46.21,143.65 L 45.56,143.69 L 44.05,143.76 L 42.48,143.83 L 38.65,143.92 L 32.25,143.98 L 30.63,143.99 L 27.82,143.98 L 26.49,143.97 L 24.23,143.93 L 23.16,143.91 L 21.40,143.85 L 20.57,143.82 L 19.25,143.73 L 18.64,143.68 L 17.72,143.55 L 17.30,143.48 L 16.71,143.31 L 16.46,143.23 L 16.17,143.02 L 16.05,142.91 Z" fill="rgb(253,252,254)"/>
</g>
</svg>